<?xml version="1.0" encoding="UTF-8" standalone="no"?>
<!-- Created with Inkscape (http://www.inkscape.org/) -->

<svg
   width="153.32314mm"
   height="120.99744mm"
   viewBox="0 0 153.32314 120.99744"
   version="1.1"
   id="svg5"
   xmlns="http://www.w3.org/2000/svg"
   xmlns:svg="http://www.w3.org/2000/svg">
  <defs
     id="defs2" />
  <g
     id="layer1"
     transform="translate(-26.25976,-41.025314)">
    <g
       id="g2231"
       transform="translate(-1.2392215,-38.002781)">
      <path
         style="fill:#b9b9b9;fill-opacity:1;stroke-width:0.314743"
         d="m 91.189384,188.43375 c 0,-0.0632 0.256126,-0.30311 0.569169,-0.53302 0.51585,-0.37887 0.527353,-0.36809 0.122798,0.115 -0.424884,0.50736 -0.691967,0.66871 -0.691967,0.41802 z m 24.676716,-0.41802 c -0.40455,-0.48309 -0.39305,-0.49387 0.1228,-0.115 0.54177,0.3979 0.71406,0.64802 0.44637,0.64802 -0.0675,0 -0.32366,-0.23986 -0.56917,-0.53302 z m -17.144855,-4.94952 c 0,-0.41881 0.07382,-0.59014 0.164048,-0.38073 0.09022,0.2094 0.09022,0.55206 0,0.76146 -0.09023,0.2094 -0.164048,0.0381 -0.164048,-0.38073 z m 10.082425,0 c 0,-0.41881 0.0738,-0.59014 0.16405,-0.38073 0.0902,0.2094 0.0902,0.55206 0,0.76146 -0.0902,0.2094 -0.16405,0.0381 -0.16405,-0.38073 z m -7.79369,-18.42745 c 0.007,-0.50256 0.0795,-0.67129 0.16198,-0.37493 0.0825,0.29635 0.077,0.70754 -0.0121,0.91375 -0.0891,0.20622 -0.15656,-0.0362 -0.14993,-0.53882 z m 5.52907,0 c 0.007,-0.50256 0.0795,-0.67129 0.16198,-0.37493 0.0825,0.29635 0.077,0.70754 -0.0121,0.91375 -0.0891,0.20622 -0.15656,-0.0362 -0.14993,-0.53882 z m -5.84226,-5.02566 c 0,-0.58633 0.0669,-0.82619 0.14874,-0.53303 0.0818,0.29317 0.0818,0.77289 0,1.06605 -0.0818,0.29317 -0.14874,0.0533 -0.14874,-0.53302 z m 6.17955,0 c 0,-0.58633 0.0669,-0.82619 0.14874,-0.53303 0.0818,0.29317 0.0818,0.77289 0,1.06605 -0.0818,0.29317 -0.14874,0.0533 -0.14874,-0.53302 z m -6.51684,-5.02567 c 0.007,-0.50257 0.0795,-0.67129 0.16198,-0.37494 0.0825,0.29636 0.077,0.70755 -0.0121,0.91376 -0.0891,0.20622 -0.15656,-0.0362 -0.14993,-0.53882 z m 6.81797,0.15229 c 0,-0.4188 0.0738,-0.59013 0.16405,-0.38073 0.0902,0.2094 0.0902,0.55206 0,0.76147 -0.0902,0.2094 -0.16405,0.0381 -0.16405,-0.38074 z m -7.14321,-4.72108 c 0.007,-0.50256 0.0795,-0.67129 0.16198,-0.37493 0.0825,0.29635 0.077,0.70754 -0.0121,0.91375 -0.0891,0.20622 -0.15656,-0.0362 -0.14993,-0.53882 z m 7.48051,0 c 0.007,-0.50256 0.0795,-0.67129 0.16198,-0.37493 0.0825,0.29635 0.077,0.70754 -0.0121,0.91375 -0.0891,0.20622 -0.15656,-0.0362 -0.14993,-0.53882 z m -7.793703,-5.02566 c 0,-0.58633 0.06694,-0.82619 0.148742,-0.53303 0.0818,0.29316 0.0818,0.77289 0,1.06605 -0.08181,0.29317 -0.148742,0.0533 -0.148742,-0.53302 z m 8.130993,0 c 0,-0.58633 0.0669,-0.82619 0.14874,-0.53303 0.0818,0.29316 0.0818,0.77289 0,1.06605 -0.0818,0.29317 -0.14874,0.0533 -0.14874,-0.53302 z m -8.480336,-4.87338 c 0,-0.4188 0.07382,-0.59013 0.164048,-0.38073 0.09023,0.2094 0.09023,0.55206 0,0.76146 -0.09022,0.20941 -0.164048,0.0381 -0.164048,-0.38073 z m 8.793526,-0.15229 c 0.007,-0.50257 0.0795,-0.67129 0.16198,-0.37494 0.0825,0.29636 0.077,0.70755 -0.0121,0.91376 -0.0891,0.20621 -0.15656,-0.0363 -0.14993,-0.53882 z M 27.503541,139.3209 c -0.02856,-0.71163 0.07675,-0.98497 0.324303,-0.84169 0.257652,0.14912 0.304646,-0.078 0.158119,-0.76408 -0.148033,-0.69315 -0.10074,-0.91389 0.163081,-0.76119 0.252136,0.14593 0.312585,0.004 0.188054,-0.44216 -0.100935,-0.36147 -0.06615,-0.58929 0.07731,-0.50626 0.143457,0.083 0.344751,-0.0538 0.447321,-0.30416 0.102571,-0.25032 0.0081,-0.45723 -0.209847,-0.45979 -0.270043,-0.003 -0.251931,-0.0903 0.05684,-0.27341 0.249254,-0.14782 0.381161,-0.52669 0.293129,-0.84195 -0.08803,-0.31525 0.05088,-0.75772 0.308691,-0.98326 0.260185,-0.22762 0.403073,-0.73182 0.321142,-1.1332 -0.08119,-0.39773 -0.04948,-0.72314 0.07045,-0.72314 0.119932,0 0.448242,-0.67409 0.729577,-1.49799 0.382462,-1.12003 0.418639,-1.59241 0.143392,-1.8722 -0.281323,-0.28596 -0.259229,-0.31597 0.09369,-0.12726 0.342998,0.1834 0.408384,0.11653 0.254136,-0.25991 -0.139882,-0.34137 -0.03936,-0.50684 0.307904,-0.50684 0.355458,0 0.462754,-0.18919 0.345479,-0.60917 -0.09356,-0.33505 -0.02882,-0.60917 0.143883,-0.60917 0.172692,0 0.22129,-0.14046 0.107996,-0.31214 -0.113294,-0.17167 -0.01216,-0.27446 0.224734,-0.22844 0.243689,0.0474 0.430724,-0.18083 0.430724,-0.52547 0,-0.33505 0.267441,-0.85963 0.594317,-1.16575 0.326872,-0.30612 0.519063,-0.74023 0.427085,-0.9647 -0.09198,-0.22446 0.05825,-0.48915 0.333839,-0.58819 0.275585,-0.099 0.421943,-0.37316 0.325239,-0.60917 -0.09671,-0.23601 0.04965,-0.51013 0.32524,-0.60917 0.290588,-0.10443 0.420148,-0.37755 0.308428,-0.6502 -0.105953,-0.25857 -0.05807,-0.39224 0.106402,-0.29705 0.16447,0.0952 0.39097,0.0338 0.503328,-0.13647 0.112357,-0.17026 0.02134,-0.30956 -0.202309,-0.30956 -0.229818,0 -0.145857,-0.17855 0.193114,-0.41067 0.329839,-0.22587 0.495532,-0.56853 0.368207,-0.76146 -0.127328,-0.19294 -0.100001,-0.35079 0.06073,-0.35079 0.457707,0 1.015067,-1.38326 0.730876,-1.81389 -0.203278,-0.30802 -0.29228,-0.30229 -0.435477,0.0281 -0.09899,0.22835 -0.09841,-0.0303 0.0013,-0.57471 0.119945,-0.65503 0.05099,-0.98991 -0.203824,-0.98991 -0.211799,0 -0.292426,-0.1404 -0.179175,-0.31201 0.312035,-0.47282 -0.170321,-2.15901 -0.554074,-1.9369 -0.211491,0.12241 -0.252458,-0.0464 -0.111915,-0.46106 0.311592,-0.9194 -0.122993,-2.68925 -0.522485,-2.12781 -0.197817,0.27801 -0.226129,0.1253 -0.08325,-0.44901 0.147148,-0.59147 0.07216,-0.95593 -0.234049,-1.13754 -0.275491,-0.16339 -0.304424,-0.26904 -0.07446,-0.27189 0.278723,-0.003 0.28662,-0.27773 0.03047,-1.05928 -0.19009,-0.58003 -0.491717,-0.97005 -0.670287,-0.86669 -0.204133,0.11815 -0.219179,0.0291 -0.04052,-0.23988 0.412924,-0.62168 0.177863,-1.89053 -0.431919,-2.33146 -0.28959,-0.2094 -0.356791,-0.38073 -0.149333,-0.38073 0.207457,0 0.293271,-0.20481 0.190701,-0.45513 -0.102571,-0.25032 -0.333195,-0.37022 -0.512497,-0.26644 -0.205821,0.11913 -0.239395,-0.078 -0.09108,-0.53477 0.376087,-1.15818 0.351954,-1.33853 -0.165238,-1.23473 -0.365397,0.0733 -0.395251,0.01 -0.118931,-0.25413 0.378895,-0.361537 0.220363,-1.613659 -0.175313,-1.384647 -0.121162,0.07013 -0.168257,-0.376873 -0.104659,-0.993331 0.08761,-0.849188 0.03293,-1.010101 -0.225612,-0.663951 -0.438976,0.587729 -0.455648,-0.0077 -0.0296,-1.05709 0.255514,-0.629378 0.216495,-0.829932 -0.189888,-0.975972 -0.281319,-0.101098 -0.369853,-0.267536 -0.196741,-0.369865 0.368373,-0.21776 -0.239503,-3.384207 -0.649689,-3.384207 -0.143557,0 -0.261011,-0.282218 -0.261011,-0.627149 0,-0.347246 0.147526,-0.541761 0.330544,-0.435832 0.1818,0.105223 0.231516,0.353174 0.110478,0.551002 -0.121038,0.197826 -0.12913,0.285071 -0.01799,0.193878 0.161475,-0.132482 0.631625,-8.52625 0.600623,-10.723137 -0.0044,-0.313933 0.25154,-0.548674 0.622746,-0.571098 0.346647,-0.02093 0.776623,-0.07234 0.955505,-0.11422 0.178882,-0.04188 0.654545,-0.102913 1.057029,-0.135629 0.670604,-0.0545 0.679913,-0.07853 0.111336,-0.287343 -0.373203,-0.137061 0.166012,-0.219564 1.353116,-0.207033 1.085464,0.01145 1.950101,0.130472 1.921411,0.264475 -0.09504,0.443955 1.927702,1.054129 3.153103,0.951151 0.698973,-0.05874 1.126051,0.01946 1.016107,0.186063 -0.104311,0.158065 0.02267,0.211084 0.282194,0.11782 0.259519,-0.09326 0.568721,-0.02278 0.687111,0.156606 0.146325,0.221726 0.408833,0.229152 0.81976,0.02321 0.332476,-0.166636 0.652899,-0.201273 0.71205,-0.07697 0.197248,0.414508 2.586347,1.305144 2.944673,1.097749 0.220519,-0.127634 0.258738,-0.06133 0.101764,0.176526 -0.173795,0.263348 -0.06382,0.345677 0.356297,0.266725 0.334229,-0.06281 0.885979,0.124869 1.226111,0.417067 0.340135,0.292195 0.73082,0.466214 0.868188,0.386708 0.137371,-0.07951 0.444511,0.02802 0.682534,0.238972 0.238024,0.210941 0.725486,0.430886 1.08325,0.488763 0.357763,0.05788 1.309089,0.393239 2.114057,0.745245 0.804967,0.35201 1.564428,0.615833 1.687687,0.586273 0.123259,-0.02954 0.316578,0.219107 0.429599,0.552586 0.113018,0.333479 0.629853,0.811837 1.148515,1.063017 1.010633,0.48943 1.786135,1.534403 1.690491,2.2779 -0.03801,0.2955 0.0049,0.322398 0.121487,0.07615 0.09914,-0.209402 0.542594,-0.380732 0.98545,-0.380732 0.531945,0 0.725385,-0.120927 0.570021,-0.356347 -0.159657,-0.241927 -0.05555,-0.291799 0.324225,-0.155318 0.678681,0.243895 2.921968,-0.579593 2.66005,-0.976477 -0.102562,-0.155409 0.08818,-0.2153 0.423861,-0.133092 0.675344,0.165393 3.293434,-0.964423 3.293434,-1.421256 0,-0.158859 0.243546,-0.201313 0.541212,-0.09434 0.384807,0.138288 0.467031,0.08208 0.284513,-0.194484 -0.192343,-0.291449 -0.07319,-0.334429 0.475234,-0.171421 0.544451,0.161829 0.666978,0.119123 0.478336,-0.166721 -0.170858,-0.258901 -0.122313,-0.308293 0.148787,-0.151383 0.516435,0.298906 5.913873,-0.751254 5.680292,-1.105195 -0.0972,-0.147289 0.416343,-0.177626 1.14916,-0.06789 1.01008,0.151264 1.326076,0.09869 1.329871,-0.221254 0.0033,-0.280852 0.08402,-0.308576 0.24393,-0.08382 0.172471,0.242405 0.82712,0.220834 2.353007,-0.07753 1.162732,-0.227358 2.518541,-0.355884 3.012909,-0.285613 0.555935,0.07902 1.107353,-0.0657 1.445377,-0.37935 0.510021,-0.473232 0.532134,-0.471502 0.331006,0.02592 -0.118537,0.293163 -0.08642,0.533025 0.07138,0.533025 0.391728,0 5.980641,6.73841 5.980641,7.210707 0,0.207749 0.210329,0.453309 0.467398,0.545693 0.25707,0.09238 0.384486,0.370316 0.283144,0.617633 -0.105664,0.257869 0.07171,0.577952 0.415852,0.750436 0.677099,0.33936 1.254644,1.38628 0.591597,1.072389 -0.221553,-0.104884 -0.132044,0.01593 0.198913,0.268501 0.330954,0.25256 0.505267,0.605383 0.387354,0.784053 -0.117909,0.178667 -0.04024,0.32485 0.172608,0.32485 0.265197,0 0.325318,0.359466 0.19103,1.142197 -0.143301,0.835281 -0.105736,1.019431 0.139801,0.685318 0.245741,-0.334395 0.277543,-0.181283 0.118621,0.571132 -0.167238,0.79178 -0.121701,0.972774 0.198159,0.787644 0.29361,-0.169938 0.35561,-0.09472 0.2116,0.256726 -0.112025,0.2734 -0.04897,0.586636 0.140117,0.696079 0.19568,0.113258 0.259817,0.60955 0.148868,1.151948 -0.149616,0.73144 -0.113066,0.84676 0.157238,0.49609 0.269818,-0.35005 0.308883,-0.22187 0.167062,0.54816 -0.130639,0.70933 -0.07591,0.94185 0.185998,0.79026 0.265893,-0.15389 0.313222,0.12246 0.166939,0.97476 -0.148443,0.86491 -0.11253,1.06487 0.131595,0.73268 0.246392,-0.33528 0.281967,-0.17315 0.133667,0.60917 -0.158401,0.83559 -0.122007,0.96728 0.168347,0.60917 0.299715,-0.36965 0.343554,-0.29899 0.229626,0.3701 -0.07745,0.45485 -0.0226,0.86604 0.121877,0.91376 0.144481,0.0477 0.364102,0.68482 0.488051,1.41577 0.219449,1.29416 0.206827,1.31971 -0.481693,0.97462 -0.388875,-0.1949 -0.643788,-0.45029 -0.566476,-0.56753 0.07732,-0.11724 -1.017697,-0.21542 -2.433361,-0.21818 -1.415663,-0.003 -2.334813,0.0735 -2.042553,0.16953 0.567371,0.18638 -5.617439,1.51622 -7.479159,1.60815 -0.611122,0.0302 -1.028733,0.18095 -0.928022,0.33506 0.101195,0.15486 -0.06655,0.19048 -0.374995,0.0796 -0.315723,-0.11346 -0.47607,-0.0763 -0.369206,0.0857 0.103895,0.15743 -0.437346,0.45398 -1.202758,0.65901 -0.765409,0.20502 -1.568191,0.49764 -1.783958,0.65025 -0.215764,0.15262 -0.534958,0.19491 -0.709315,0.094 -0.174358,-0.10092 -0.422919,-0.023 -0.552358,0.17313 -0.146982,0.22272 -0.09436,0.27502 0.140146,0.13929 0.206527,-0.11955 0.375499,-0.15191 0.375499,-0.0719 0,0.18041 -2.107253,1.41345 -2.415571,1.41345 -0.123604,0 -0.120306,-0.15824 0.0073,-0.35165 0.144937,-0.21961 0.08909,-0.26889 -0.148729,-0.13124 -0.209438,0.12122 -0.301689,0.34027 -0.205001,0.48678 0.226327,0.34295 -2.646419,1.92943 -3.060143,1.68997 -0.17187,-0.0995 -0.418398,-0.0204 -0.547837,0.17575 -0.146982,0.22272 -0.09437,0.27502 0.140146,0.13928 0.20652,-0.11953 0.375492,-0.1499 0.375492,-0.0675 0,0.37026 -5.564774,3.25186 -5.902408,3.05644 -0.222262,-0.12864 -0.29026,-0.0862 -0.165261,0.10325 0.264475,0.40075 -1.983678,1.68186 -2.46378,1.40398 -0.196673,-0.11383 -0.257301,-0.0616 -0.138136,0.11895 0.116816,0.17701 -0.308012,0.60938 -0.944057,0.96082 -1.31615,0.72723 -1.58133,0.78815 -1.250825,0.28734 0.144936,-0.21962 0.08909,-0.26889 -0.148729,-0.13124 -0.209438,0.12122 -0.313193,0.32284 -0.230559,0.44805 0.215247,0.32616 -1.701403,1.32642 -2.099792,1.09584 -0.182947,-0.10589 -0.292413,-0.011 -0.243263,0.21085 0.04943,0.22309 -0.163443,0.38471 -0.4763,0.36161 -0.311118,-0.023 -0.489281,0.074 -0.395914,0.21547 0.212976,0.32272 -1.716956,1.28265 -2.11527,1.05211 -0.161267,-0.0933 -0.399121,-0.009 -0.52856,0.18691 -0.146982,0.22272 -0.09436,0.27502 0.140145,0.13929 0.206534,-0.11954 0.375506,-0.15189 0.375506,-0.0719 0,0.18041 -2.107253,1.41346 -2.41557,1.41346 -0.123605,0 -0.119454,-0.17133 0.0092,-0.38073 0.135928,-0.22121 0.109902,-0.27438 -0.06211,-0.12692 -0.162841,0.13961 -0.296075,0.40231 -0.296075,0.58379 0,0.18149 -0.20332,0.39344 -0.451823,0.47102 -0.301182,0.094 -0.365755,0.0106 -0.193677,-0.25012 0.17053,-0.2584 0.128899,-0.31636 -0.122651,-0.17076 -0.209438,0.12121 -0.300446,0.34215 -0.20224,0.49096 0.219091,0.33199 -1.698196,1.30176 -2.106463,1.06546 -0.161267,-0.0933 -0.399121,-0.009 -0.52856,0.18691 -0.146982,0.22272 -0.09436,0.27501 0.140146,0.13928 0.206521,-0.11953 0.375492,-0.15189 0.375492,-0.0719 0,0.35747 -2.304377,1.43337 -2.646236,1.23551 -0.233568,-0.13519 -0.29457,-0.0892 -0.157371,0.11874 0.263347,0.39904 -3.008618,2.25161 -3.487358,1.97452 -0.172881,-0.10006 -0.226497,-0.0488 -0.119145,0.11384 0.260436,0.39463 -1.61926,1.41605 -2.097037,1.13952 -0.225443,-0.13048 -0.286653,-0.0833 -0.153588,0.11829 0.276148,0.41845 -5.218156,3.51146 -5.720814,3.22053 -0.200647,-0.11613 -0.262478,-0.0655 -0.142347,0.11651 0.264475,0.40075 -1.983679,1.68186 -2.463781,1.40398 -0.192786,-0.11158 -0.262689,-0.0698 -0.155338,0.0929 0.246578,0.37364 -1.606628,1.42337 -2.054843,1.16395 -0.182948,-0.10589 -0.292414,-0.011 -0.243263,0.21085 0.04943,0.22309 -0.163443,0.38471 -0.476301,0.36161 -0.311117,-0.023 -0.49532,0.0648 -0.40934,0.19513 0.08598,0.13028 -0.185045,0.44635 -0.602275,0.70237 -0.742714,0.45574 -0.759483,0.44342 -0.800906,-0.58839 z m 11.983867,-39.02313 c 1.032733,-1.01582 1.291761,-1.366834 0.618112,-0.83761 -0.637779,0.501044 -0.125527,-0.02747 1.138338,-1.174483 1.263865,-1.147012 2.078398,-1.991766 1.810075,-1.877232 -0.268323,0.114533 -0.121965,-0.08967 0.32524,-0.453791 0.447204,-0.364117 0.593562,-0.569712 0.325239,-0.456878 -0.268322,0.112833 -0.17854,-0.0466 0.199515,-0.354301 0.902006,-0.734149 2.414029,-2.8844 2.227266,-3.167403 -0.0805,-0.121984 0.06097,-0.296298 0.314377,-0.387363 0.610393,-0.219357 0.311134,-1.230363 -0.57261,-1.934486 -0.67951,-0.541395 -0.683969,-0.540238 -0.217111,0.05642 0.47069,0.601554 0.467666,0.601999 -0.241864,0.03544 -0.395182,-0.315551 -0.637909,-0.695872 -0.53939,-0.845156 0.09852,-0.149283 0.05848,-0.235819 -0.08898,-0.1923 -0.147457,0.04352 -0.988436,-0.604137 -1.868836,-1.439238 -0.880404,-0.835098 -1.319478,-1.167645 -0.975719,-0.738996 0.343755,0.428653 0.09259,0.239731 -0.558147,-0.419825 -0.766251,-0.776633 -1.32833,-1.115171 -1.59514,-0.960743 -0.268274,0.155271 -0.331029,0.115785 -0.179913,-0.1132 0.203928,-0.309008 0.02156,-0.402117 -0.649042,-0.331365 -0.105729,0.01115 -0.409297,-0.228707 -0.674595,-0.533025 -0.265298,-0.304318 -0.37439,-0.347712 -0.242424,-0.09643 0.131966,0.251283 -0.14291,0.07995 -0.610832,-0.380732 -0.89493,-0.881094 -1.389938,-1.099515 -1.035417,-0.456879 0.115522,0.209403 -0.05879,0.08947 -0.387353,-0.266506 -0.831469,-0.90085 -2.611583,-1.946663 -2.268205,-1.33257 0.14051,0.251284 0.02508,0.19082 -0.256506,-0.134362 -0.501175,-0.578761 -0.511979,-0.576776 -0.511979,0.09412 0,0.440985 -0.134054,0.607773 -0.375961,0.467761 -0.277016,-0.160334 -0.319252,0.25577 -0.160486,1.581099 0.146006,1.218837 0.112539,1.651413 -0.103814,1.341823 -0.219201,-0.313666 -0.296332,0.377546 -0.246063,2.205113 0.04028,1.464095 0.178401,2.663402 0.306948,2.665126 0.128545,0.0018 0.149477,0.20873 0.04651,0.460013 -0.102968,0.251283 -0.02979,0.456879 0.16262,0.456879 0.192662,0 0.256523,0.227705 0.142146,0.506843 -0.147666,0.360371 -0.08765,0.437373 0.207671,0.266445 0.307768,-0.178133 0.358528,-0.07273 0.195974,0.406912 -0.127325,0.375688 -0.07799,0.647315 0.117567,0.647315 0.185322,0 0.243491,0.22808 0.129267,0.506843 -0.131365,0.320589 -0.079,0.432366 0.142494,0.304169 0.22662,-0.131167 0.285423,0.02921 0.166659,0.454539 -0.133644,0.478605 -0.07174,0.59252 0.227794,0.419156 0.306399,-0.177339 0.352059,-0.06322 0.179009,0.447394 -0.157013,0.46329 -0.116807,0.618608 0.12405,0.479202 0.223328,-0.12926 0.284054,-0.02979 0.162668,0.266442 -0.10729,0.261841 -0.02332,0.472699 0.188262,0.472699 0.241448,0 0.30125,0.238122 0.162571,0.647315 -0.13731,0.405154 -0.09602,0.575914 0.110373,0.456459 0.20226,-0.117065 0.258796,0.06325 0.146231,0.466363 -0.124827,0.447026 -0.06431,0.588223 0.189224,0.441479 0.241657,-0.139866 0.304629,-0.0495 0.179058,0.256958 -0.10729,0.26184 -0.02332,0.472699 0.188261,0.472699 0.241448,0 0.30125,0.238122 0.162571,0.647315 -0.146455,0.43214 -0.100922,0.578753 0.136978,0.441059 0.223329,-0.129261 0.284055,-0.02979 0.162669,0.266444 -0.106532,0.25999 -0.03627,0.4727 0.156137,0.4727 0.192406,0 0.265585,0.2056 0.16262,0.45688 -0.102967,0.25128 -0.01655,0.45688 0.192022,0.45688 0.208576,0 0.288777,0.13706 0.178221,0.30459 -0.110555,0.16752 0.06876,0.30458 0.398464,0.30458 0.329712,0 1.399444,-0.78687 2.377182,-1.7486 z M 54.448082,89.671618 c -0.567797,-0.223581 -0.949699,-0.531764 -0.84867,-0.684849 0.101029,-0.153088 -0.04261,-0.359667 -0.319193,-0.459063 -0.337173,-0.12117 -0.427788,-0.05641 -0.274987,0.196522 0.569494,0.942705 1.54089,1.689662 1.988267,1.528887 0.344643,-0.123851 0.185253,-0.293782 -0.545417,-0.581497 z M 31.885949,87.959276 c -0.09023,-0.209403 -0.164048,-0.03807 -0.164048,0.380732 0,0.418806 0.07382,0.590135 0.164048,0.380732 0.09023,-0.209402 0.09023,-0.552061 0,-0.761464 z m 20.42342,0.401779 c 0.102919,-0.155948 0.06277,-0.355513 -0.08922,-0.44348 -0.151987,-0.08797 -0.276339,0.03962 -0.276339,0.283539 0,0.513583 0.102561,0.558455 0.365556,0.159941 z m -1.124448,-1.35439 c 0,-0.06325 -0.222886,-0.288229 -0.495304,-0.499959 -0.414143,-0.32188 -0.461736,-0.303039 -0.290442,0.114999 0.174943,0.426947 0.785746,0.7262 0.785746,0.38496 z m -1.626197,-1.40793 c 0,-0.167522 -0.06454,-0.304585 -0.143424,-0.304585 -0.07888,0 -0.23388,0.137063 -0.344436,0.304585 -0.110555,0.167523 -0.04601,0.304586 0.143425,0.304586 0.189439,0 0.344435,-0.137063 0.344435,-0.304586 z m -0.975719,-1.084228 c 0,-0.20544 -0.209812,-0.448926 -0.466254,-0.541081 -0.304167,-0.10931 -0.45112,0.02053 -0.42273,0.373526 0.04835,0.601148 0.888984,0.759591 0.888984,0.167555 z m -1.300958,-0.858286 c 0,-0.06325 -0.256126,-0.303109 -0.569169,-0.533025 -0.51585,-0.378866 -0.527353,-0.368092 -0.122798,0.114999 0.424884,0.507364 0.691967,0.668712 0.691967,0.418026 z m -1.585839,-1.489154 c -0.321213,-0.298573 -0.35857,-0.263588 -0.182069,0.170507 0.122137,0.300389 0.303998,0.469434 0.404136,0.375655 0.100138,-0.09378 2.09e-4,-0.339549 -0.222067,-0.546162 z M 179.45364,139.89505 c -0.33671,-0.23519 -0.58135,-0.53888 -0.54365,-0.67487 0.0377,-0.13599 -0.18183,-0.22911 -0.48786,-0.20694 -0.30602,0.0222 -0.51619,-0.14121 -0.46704,-0.36306 0.0491,-0.22185 -0.0563,-0.31905 -0.23438,-0.21599 -0.48412,0.2802 -2.35487,-0.71765 -2.09205,-1.11589 0.13666,-0.20709 0.0753,-0.2529 -0.15792,-0.11792 -0.44233,0.25602 -2.72962,-0.9722 -2.48914,-1.33661 0.0886,-0.13429 -0.0934,-0.22539 -0.40452,-0.20242 -0.31286,0.0231 -0.52573,-0.13852 -0.4763,-0.36161 0.0492,-0.22186 -0.0563,-0.31906 -0.23438,-0.216 -0.42955,0.24862 -2.36597,-0.70082 -2.137,-1.04778 0.0982,-0.14881 0.007,-0.36975 -0.20224,-0.49097 -0.23782,-0.13765 -0.29366,-0.0884 -0.14873,0.13125 0.34409,0.52138 -0.0834,0.42919 -1.31484,-0.28354 -0.6036,-0.34935 -1.02097,-0.75107 -0.9275,-0.89271 0.0935,-0.14164 -0.001,-0.35671 -0.21084,-0.47793 -0.23782,-0.13765 -0.29367,-0.0884 -0.14873,0.13125 0.12764,0.1934 0.13093,0.35165 0.007,0.35165 -0.30831,0 -2.41556,-1.23305 -2.41556,-1.41346 0,-0.08 0.16897,-0.0476 0.37549,0.0719 0.23451,0.13574 0.28713,0.0834 0.14015,-0.13928 -0.12944,-0.19614 -0.37597,-0.27523 -0.54784,-0.17575 -0.41372,0.23946 -3.28647,-1.34702 -3.06014,-1.68997 0.0967,-0.14651 0.004,-0.36556 -0.205,-0.48678 -0.23783,-0.13765 -0.29367,-0.0884 -0.14873,0.13124 0.12763,0.19341 0.13093,0.35165 0.007,0.35165 -0.3083,0 -2.41555,-1.23304 -2.41555,-1.41345 0,-0.08 0.16897,-0.0476 0.37549,0.0719 0.23451,0.13573 0.28713,0.0834 0.14015,-0.13928 -0.12944,-0.19614 -0.3673,-0.28025 -0.52856,-0.18691 -0.39832,0.23054 -2.32825,-0.72939 -2.11527,-1.05211 0.0934,-0.14148 -0.0848,-0.23844 -0.39592,-0.21547 -0.31286,0.0231 -0.52573,-0.13852 -0.4763,-0.36162 0.0491,-0.22185 -0.0576,-0.31831 -0.23721,-0.21435 -0.47541,0.27516 -1.69884,-0.41882 -1.43721,-0.81525 0.12842,-0.1946 0.074,-0.25073 -0.12909,-0.13317 -0.43906,0.25412 -4.38093,-1.87635 -4.14189,-2.23858 0.0962,-0.1458 0.004,-0.36427 -0.20585,-0.48549 -0.23782,-0.13765 -0.29366,-0.0884 -0.14873,0.13125 0.12764,0.1934 0.11367,0.35074 -0.0311,0.34964 -0.42253,-0.003 -2.11085,-1.11881 -2.05169,-1.35568 0.0297,-0.11881 -0.0549,-0.30739 -0.18791,-0.41907 -0.13303,-0.11168 -0.13659,-0.0317 -0.008,0.17768 0.32498,0.52886 0.0862,0.47949 -1.24894,-0.25826 -0.63604,-0.35144 -1.06087,-0.78381 -0.94405,-0.96082 0.11916,-0.18057 0.0585,-0.23278 -0.13814,-0.11895 -0.31878,0.18451 -2.67714,-0.89274 -2.67714,-1.22287 0,-0.0771 0.16897,-0.0424 0.37549,0.0772 0.23451,0.13573 0.28713,0.0834 0.14015,-0.13928 -0.12944,-0.19614 -0.36954,-0.27895 -0.53356,-0.18402 -0.39513,0.22869 -3.28277,-1.36599 -3.06662,-1.69353 0.0924,-0.14 -0.003,-0.35374 -0.2128,-0.47496 -0.23782,-0.13765 -0.29367,-0.0884 -0.14873,0.13125 0.12764,0.1934 0.13093,0.35165 0.007,0.35165 -0.30831,0 -2.41556,-1.23305 -2.41556,-1.41346 0,-0.08 0.16897,-0.0476 0.37549,0.0719 0.23451,0.13574 0.28713,0.0834 0.14015,-0.13928 -0.12944,-0.19614 -0.3673,-0.28025 -0.52856,-0.18691 -0.39832,0.23054 -2.32825,-0.72939 -2.11527,-1.05211 0.0934,-0.14147 -0.0848,-0.23843 -0.39592,-0.21547 -0.31285,0.0231 -0.52573,-0.13852 -0.4763,-0.36161 0.0491,-0.22186 -0.0576,-0.31832 -0.23721,-0.21436 -0.4402,0.25479 -1.70822,-0.40459 -1.47057,-0.7647 0.10374,-0.1572 -0.0237,-0.20951 -0.28323,-0.11624 -0.25952,0.0933 -0.58245,0.002 -0.71763,-0.20285 -0.16751,-0.25383 -0.11021,-0.29395 0.17998,-0.12599 0.28383,0.16427 0.34729,0.12754 0.1904,-0.1102 -0.12944,-0.19614 -0.378,-0.27405 -0.55236,-0.17314 -0.17436,0.10092 -0.49355,0.0586 -0.70932,-0.094 -0.21576,-0.15262 -1.01855,-0.44523 -1.78395,-0.65026 -0.76542,-0.20502 -1.30666,-0.50158 -1.20276,-0.65901 0.10389,-0.15743 -0.0268,-0.20872 -0.29044,-0.11398 -0.26363,0.0948 -0.7742,0.0245 -1.13458,-0.15614 -0.36039,-0.18063 -1.28656,-0.40174 -2.05816,-0.49135 -0.77161,-0.0896 -1.91517,-0.28989 -2.54126,-0.44504 -0.62608,-0.15516 -2.36128,-0.47968 -3.85598,-0.72116 -2.59215,-0.41879 -2.76863,-0.41089 -3.82157,0.1709 -1.21362,0.67059 -1.2871,0.56996 -0.9017,-1.2347 0.11429,-0.53517 0.34705,-0.86306 0.5353,-0.75411 0.20926,0.12112 0.2629,-0.0789 0.14429,-0.53797 -0.23933,-0.92643 0.50517,-4.04356 0.88762,-3.71638 0.16134,0.13802 0.18755,-0.0101 0.0602,-0.34035 -0.28946,-0.75085 0.44577,-3.86845 0.85627,-3.630857 0.18949,0.109675 0.22604,-0.221316 0.0936,-0.848135 -0.15893,-0.752415 -0.12712,-0.905528 0.11862,-0.571132 0.24553,0.334112 0.2831,0.149963 0.1398,-0.685318 -0.13429,-0.782731 -0.0742,-1.142197 0.19103,-1.142197 0.21284,0 0.3047,-0.124695 0.20412,-0.2771 -0.28006,-0.42437 0.16756,-1.26842 0.55405,-1.044727 0.21231,0.122883 0.24323,0.04883 0.0818,-0.195836 -0.16609,-0.25167 0.0209,-0.607405 0.51891,-0.987248 0.42821,-0.326595 0.56767,-0.489116 0.3099,-0.36116 -0.7344,0.364565 0.88277,-2.028109 2.0529,-3.037363 0.55972,-0.482772 0.79815,-0.767605 0.52982,-0.632963 -0.64331,0.322815 0.39251,-0.892284 1.93068,-2.264831 0.63751,-0.568859 0.86919,-0.842987 0.51485,-0.609171 -0.3846,0.253784 -0.20974,-0.09659 0.43388,-0.869374 0.59297,-0.711969 1.20759,-1.294489 1.36583,-1.294489 0.15824,0 0.24311,-0.17133 0.1886,-0.380733 -0.0545,-0.209402 -0.0377,-0.277934 0.0373,-0.152293 0.075,0.125642 0.67306,0.231297 1.32896,0.234787 0.6559,0.0035 2.11322,0.187004 3.23848,0.407807 1.12527,0.220804 2.12182,0.286478 2.21456,0.145946 0.0927,-0.140533 0.31498,-0.255514 0.49387,-0.255514 0.17888,0 0.22101,0.157937 0.0936,0.350974 -0.16843,0.255206 0.14347,0.294799 1.14307,0.145108 1.00321,-0.150231 1.31181,-0.110556 1.14195,0.146825 -0.1635,0.247744 0.0662,0.311598 0.77199,0.21459 0.5526,-0.07595 0.9333,-0.02985 0.84599,0.102445 -0.20662,0.313095 1.18444,0.632941 2.95256,0.678876 0.77071,0.02001 1.32495,0.153886 1.23163,0.297473 -0.0933,0.143591 0.1597,0.163173 0.56226,0.04352 0.54843,-0.163009 0.66758,-0.120029 0.47524,0.171421 -0.18252,0.276567 -0.1003,0.332772 0.28451,0.194484 0.32213,-0.115764 0.54171,-0.04424 0.54243,0.176678 0.002,0.484069 2.78388,1.553452 3.43393,1.319846 0.32696,-0.117503 0.42046,-0.05742 0.26864,0.172627 -0.15692,0.237797 -0.0509,0.287456 0.32524,0.152293 0.33209,-0.119339 0.47749,-0.07839 0.35903,0.101105 -0.26343,0.399172 1.31058,0.946521 2.00464,0.697099 0.38266,-0.137514 0.46943,-0.08245 0.29251,0.185624 -0.17239,0.261234 -0.0613,0.351772 0.3532,0.287803 0.3326,-0.05133 0.81028,0.02723 1.06152,0.174567 0.31513,0.184814 0.38392,0.157453 0.22178,-0.08822 -0.14012,-0.212339 0.33201,-0.855968 1.1694,-1.594138 1.67181,-1.473727 3.19323,-2.535885 3.19323,-2.229307 0,0.121134 0.25613,0.01663 0.56917,-0.232225 0.31305,-0.248859 1.26437,-0.692628 2.11406,-0.986158 0.84969,-0.293529 1.54713,-0.693682 1.54987,-0.889229 0.004,-0.250205 0.0815,-0.242615 0.26341,0.02562 0.19763,0.291488 0.40854,0.250202 0.89644,-0.175484 0.35091,-0.306161 0.81781,-0.500529 1.03755,-0.431934 0.21975,0.0686 0.39953,-0.03185 0.39953,-0.223221 0,-0.191372 0.13631,-0.269053 0.30291,-0.172631 0.29944,0.173316 2.62709,-0.70263 2.95807,-1.113188 0.0942,-0.116799 0.37489,-0.09447 0.62384,0.04962 0.27562,0.159521 0.71746,0.106733 1.12976,-0.134971 0.37242,-0.218324 1.26255,-0.368558 1.97807,-0.333859 1.32551,0.06428 2.52516,-0.362552 2.23875,-0.796541 -0.0872,-0.132072 0.0927,-0.149878 0.39963,-0.03957 0.30828,0.110787 0.47647,0.07514 0.37573,-0.07963 -0.10264,-0.15769 0.67857,-0.289311 1.78675,-0.301034 1.08302,-0.01145 1.68992,0.0724 1.34867,0.186342 -0.43137,0.144039 -0.10008,0.27513 1.08705,0.430149 l 1.70751,0.222972 0.0385,1.875079 c 0.0308,1.501462 0.088,1.69301 0.28676,0.961322 0.24527,-0.902671 0.24875,-0.89968 0.28676,0.246416 0.0212,0.638095 -0.0713,1.096536 -0.20545,1.01876 -0.36419,-0.211133 -0.11886,5.674672 0.25097,6.021014 0.39708,0.371872 0.419,1.394506 0.0299,1.394506 -0.15859,0 -0.35277,0.411191 -0.43154,0.913758 -0.0788,0.502567 -0.0222,0.913757 0.12571,0.913757 0.1479,0 0.26891,0.145154 0.26891,0.322563 0,0.177409 -0.14082,0.241055 -0.31294,0.141437 -0.49521,-0.286624 -0.92219,1.708956 -0.57203,2.673555 0.17033,0.469235 0.2196,0.937536 0.10948,1.040666 -0.11013,0.10313 -0.21147,-0.0067 -0.22522,-0.243986 -0.0679,-1.171744 -0.83093,2.219067 -0.80535,3.578753 0.0163,0.86547 -0.0691,1.51641 -0.18985,1.44655 -0.42135,-0.24387 -1.17608,2.44293 -0.88981,3.16766 0.15127,0.38296 0.15352,0.62595 0.005,0.53999 -0.14852,-0.086 -0.42556,0.31828 -0.61565,0.89832 -0.25613,0.78155 -0.24824,1.05582 0.0305,1.05927 0.22997,0.003 0.20103,0.10851 -0.0745,0.2719 -0.30621,0.18161 -0.3812,0.54607 -0.23405,1.13753 0.1359,0.54623 0.10891,0.71951 -0.0725,0.46535 -0.20528,-0.28766 -0.38655,-0.045 -0.62577,0.83761 -0.18908,0.69759 -0.20931,1.24257 -0.0461,1.24257 0.15986,0 0.29065,0.13706 0.29065,0.30458 0,0.16752 -0.10976,0.27032 -0.24393,0.22844 -0.13416,-0.0419 -0.29805,0.0609 -0.3642,0.22844 -0.0661,0.16752 -0.24547,0.61298 -0.3985,0.9899 -0.19451,0.47912 -0.15832,0.68673 0.12027,0.68999 0.29357,0.003 0.28648,0.0712 -0.0269,0.25733 -0.27877,0.16557 -0.35379,0.55769 -0.21763,1.13753 0.15833,0.67423 0.12529,0.77611 -0.13877,0.42799 -0.28065,-0.36998 -0.34752,-0.3017 -0.35155,0.35897 -0.003,0.44873 0.22501,1.03125 0.50611,1.29449 0.3846,0.36018 0.40472,0.48115 0.0813,0.48877 -0.26698,0.006 -0.17394,0.21051 0.24564,0.5391 0.37148,0.29094 0.60862,0.71665 0.52697,0.94603 -0.0889,0.24962 -0.002,0.33254 0.21527,0.20654 0.22744,-0.13165 0.29475,-0.0422 0.17966,0.23864 -0.10122,0.24703 0.1078,0.72245 0.46449,1.05649 0.35668,0.33403 0.56314,0.68729 0.45879,0.78501 -0.10434,0.0977 -0.0103,0.17768 0.20892,0.17768 0.21926,0 0.30819,0.13706 0.19763,0.30458 -0.11055,0.16752 -0.0374,0.30459 0.16262,0.30459 0.2,0 0.28134,0.12469 0.18076,0.2771 -0.23552,0.35688 0.13892,1.285 0.44658,1.10693 0.12866,-0.0745 0.2231,0.16618 0.20985,0.53477 -0.0145,0.40321 0.1475,0.63684 0.40664,0.58648 0.2369,-0.046 0.33803,0.0568 0.22473,0.22844 -0.11329,0.17168 -0.0331,0.31214 0.17827,0.31214 0.27097,0 0.25266,0.1515 -0.0621,0.5139 -0.38952,0.44846 -0.37599,0.48922 0.10624,0.3201 0.41393,-0.14517 0.50208,-0.0705 0.35128,0.29752 -0.13318,0.32502 -0.0738,0.41752 0.17546,0.27326 0.25391,-0.14697 0.30694,-0.0476 0.16262,0.30458 -0.16049,0.39167 -0.0984,0.46078 0.24765,0.27572 0.35226,-0.18835 0.37475,-0.15841 0.0948,0.12624 -0.27337,0.27796 -0.25057,0.73626 0.0893,1.79606 0.25101,0.78258 0.57785,1.46192 0.72632,1.50964 0.14846,0.0477 0.20448,0.4074 0.12449,0.79928 -0.08,0.39188 0.0655,0.89704 0.32331,1.12258 0.25781,0.22554 0.39672,0.668 0.30869,0.98326 -0.088,0.31526 0.0439,0.69413 0.29313,0.84195 0.298,0.17671 0.31977,0.27034 0.0636,0.2734 -0.29156,0.004 -0.30405,0.23458 -0.0496,0.91806 0.187,0.50237 0.47797,0.83355 0.64659,0.73595 0.18081,-0.10465 0.22006,0.14543 0.0957,0.60953 -0.13739,0.51265 -0.0774,0.78699 0.17221,0.78699 0.21202,0 0.33558,0.30605 0.27667,0.68531 -0.0585,0.37693 0.097,0.83381 0.34566,1.01529 0.7187,0.52456 -0.3803,0.43008 -1.13583,-0.0977 z m -67.22675,-32.42324 c -0.10382,-0.24298 -0.18089,-0.17081 -0.1965,0.18402 -0.0141,0.32108 0.0628,0.50098 0.17082,0.39977 0.10808,-0.10122 0.11963,-0.36392 0.0257,-0.58379 z m 58.62628,-5.71386 c 0.40156,-0.32615 0.63485,-0.73734 0.51843,-0.91376 -0.11643,-0.17641 -0.041,-0.32075 0.16755,-0.32075 0.20911,0 0.29235,-0.21204 0.18554,-0.4727 -0.12139,-0.296237 -0.0607,-0.3957 0.16267,-0.266439 0.2379,0.137694 0.28343,-0.0089 0.13698,-0.441059 -0.13868,-0.409193 -0.0789,-0.647315 0.16257,-0.647315 0.21157,0 0.29555,-0.210859 0.18826,-0.472699 -0.12557,-0.306456 -0.0626,-0.396824 0.17906,-0.256958 0.25353,0.146744 0.31405,0.0055 0.18922,-0.441479 -0.11256,-0.403116 -0.056,-0.583428 0.14623,-0.466363 0.2064,0.119455 0.24768,-0.0513 0.11037,-0.456459 -0.13867,-0.409193 -0.0789,-0.647315 0.16258,-0.647315 0.21157,0 0.29555,-0.210858 0.18826,-0.472699 -0.12139,-0.29624 -0.0607,-0.395702 0.16267,-0.266442 0.24085,0.139406 0.28106,-0.0159 0.12405,-0.479202 -0.17305,-0.510611 -0.12739,-0.624733 0.179,-0.447394 0.29953,0.173364 0.36144,0.05945 0.2278,-0.419156 -0.11489,-0.411416 -0.0574,-0.584247 0.15358,-0.462108 0.18908,0.109437 0.2714,0.01051 0.18746,-0.225303 -0.0823,-0.231223 0.0564,-0.613393 0.3083,-0.849267 0.25187,-0.235871 0.3871,-0.682553 0.30052,-0.992624 -0.0866,-0.310069 -0.009,-0.563764 0.17216,-0.563764 0.18127,0 0.24534,-0.205596 0.14238,-0.456879 -0.10297,-0.251283 -0.082,-0.457628 0.0465,-0.458542 0.12855,-9.13e-4 0.2585,-1.268752 0.28878,-2.817419 0.0355,-1.815319 -0.0453,-2.599317 -0.22742,-2.206584 -0.17629,0.380181 -0.20849,-0.06697 -0.0857,-1.18953 0.13744,-1.255917 0.0904,-1.737096 -0.15587,-1.594559 -0.20619,0.119337 -0.39615,-0.08243 -0.45727,-0.485692 l -0.10457,-0.689835 -0.67758,0.609171 c -0.37267,0.335045 -0.88492,0.65097 -1.13834,0.702059 -0.25341,0.05109 -0.60764,0.25668 -0.78717,0.456878 -0.17953,0.200196 -0.54542,0.406626 -0.8131,0.458731 -0.26767,0.05211 -0.75551,0.394765 -1.08407,0.761465 -0.32857,0.3667 -0.50066,0.46113 -0.38243,0.209847 0.12724,-0.270451 0.0182,-0.231104 -0.2674,0.09643 -0.2653,0.304318 -0.56887,0.544179 -0.6746,0.533025 -0.6706,-0.07075 -0.85297,0.02236 -0.64904,0.331365 0.15228,0.230751 0.0882,0.268383 -0.18637,0.109459 -0.27574,-0.159591 -0.80481,0.16197 -1.5513,0.942843 -0.62308,0.651765 -0.95378,0.910903 -0.7349,0.575859 0.21888,-0.335045 -0.53264,0.28455 -1.67004,1.376877 -1.1374,1.092327 -1.77582,1.640582 -1.4187,1.218344 0.5809,-0.686842 0.54118,-0.676251 -0.37717,0.100528 -1.18134,0.999243 -1.57876,1.983972 -0.89923,2.228174 0.25341,0.09107 0.38533,0.279853 0.29315,0.419524 -0.0922,0.139674 0.0681,0.377494 0.35625,0.52849 0.28811,0.150998 0.51073,0.365019 0.4947,0.475598 -0.0863,0.595646 0.0615,0.848921 1.02789,1.760562 0.58137,0.548455 0.83749,0.889765 0.56917,0.758464 -0.26832,-0.131301 -0.12197,0.05919 0.32524,0.423307 0.4472,0.364117 0.59356,0.552513 0.32524,0.418657 -0.26832,-0.13386 -0.12197,0.189324 0.32524,0.71818 0.4472,0.528858 0.96634,0.969143 1.15364,0.978412 0.1873,0.0093 0.91909,0.597496 1.6262,1.307172 0.89116,0.894404 0.98751,1.057954 0.31399,0.533026 -0.65716,-0.51218 -0.49925,-0.249749 0.48786,0.810788 0.80274,0.86245 1.47372,1.58203 1.49107,1.59908 0.0173,0.017 0.36009,-0.23587 0.76165,-0.56202 z m -17.2178,-11.884474 c 0,-0.141952 -0.30508,-0.183379 -0.67797,-0.09206 -0.49434,0.121064 -0.56461,0.231644 -0.25946,0.408264 0.4529,0.262129 0.93743,0.09869 0.93743,-0.316206 z m 0.93074,-0.721238 c 0.27242,-0.307403 0.24257,-0.406116 -0.1228,-0.406116 -0.26548,0 -0.4827,0.182751 -0.4827,0.406116 0,0.223362 0.0553,0.406113 0.1228,0.406113 0.0675,0 0.28475,-0.182751 0.4827,-0.406113 z m 21.40773,-0.86934 c -0.10383,-0.242977 -0.18089,-0.170805 -0.1965,0.184022 -0.0141,0.321082 0.0627,0.50098 0.17082,0.399769 0.10808,-0.101214 0.11963,-0.363919 0.0257,-0.583791 z m -20.06179,-0.247476 c 0,-0.167522 -0.0645,-0.304586 -0.14342,-0.304586 -0.0789,0 -0.23388,0.137064 -0.34444,0.304586 -0.11055,0.167522 -0.046,0.304586 0.14343,0.304586 0.18943,0 0.34443,-0.137064 0.34443,-0.304586 z m 1.34245,-1.446783 c 0.40455,-0.483091 0.39305,-0.493864 -0.1228,-0.114999 -0.31304,0.229917 -0.56917,0.469778 -0.56917,0.533025 0,0.250687 0.26708,0.08934 0.69197,-0.418026 z m 1.25947,-0.980346 c 0,-0.162262 -0.21954,-0.216131 -0.48786,-0.119705 -0.26832,0.09643 -0.48786,0.229189 -0.48786,0.295028 0,0.06584 0.21954,0.119705 0.48786,0.119705 0.26832,0 0.48786,-0.132763 0.48786,-0.295028 z m 1.48777,-1.134746 c -0.0927,-0.591613 -0.59834,-0.6414 -0.68825,-0.06777 -0.0416,0.265246 0.1109,0.482263 0.33882,0.482263 0.22791,0 0.38515,-0.186522 0.34943,-0.414489 z m 1.24941,-1.202286 c 0.17129,-0.418038 0.1237,-0.43688 -0.29044,-0.115 -0.56437,0.438644 -0.62311,0.614959 -0.20486,0.614959 0.15974,0 0.38263,-0.224982 0.4953,-0.499959 z M 99.077152,135.09394 c 0.0036,-0.67009 0.07022,-0.90836 0.14801,-0.52948 0.07779,0.37888 0.07484,0.92713 -0.0066,1.21835 -0.0814,0.29121 -0.145057,-0.0188 -0.141447,-0.68887 z m 9.431948,0 c 0.004,-0.67009 0.0702,-0.90836 0.14801,-0.52948 0.0778,0.37888 0.0748,0.92713 -0.007,1.21835 -0.0814,0.29121 -0.14506,-0.0188 -0.14145,-0.68887 z M 98.045092,124.10346 c 0.01561,-0.35482 0.09267,-0.42699 0.196497,-0.18402 0.09395,0.21987 0.0824,0.48258 -0.02566,0.58379 -0.108074,0.10121 -0.184944,-0.0787 -0.170822,-0.39977 z m 11.383388,0 c 0.0156,-0.35482 0.0927,-0.42699 0.19649,-0.18402 0.0939,0.21987 0.0824,0.48258 -0.0257,0.58379 -0.10807,0.10121 -0.18494,-0.0787 -0.17082,-0.39977 z m -11.708628,-3.04585 c 0.01561,-0.35483 0.09267,-0.427 0.196497,-0.18403 0.09395,0.21988 0.0824,0.48258 -0.02566,0.58379 -0.108074,0.10122 -0.184945,-0.0787 -0.170823,-0.39976 z m 12.033868,0 c 0.0156,-0.35483 0.0927,-0.427 0.19649,-0.18403 0.094,0.21988 0.0824,0.48258 -0.0257,0.58379 -0.10807,0.10122 -0.18494,-0.0787 -0.17082,-0.39976 z m -12.684347,-5.48255 c 0.01561,-0.35483 0.09267,-0.427 0.196497,-0.18402 0.09395,0.21987 0.0824,0.48258 -0.02566,0.58379 -0.108074,0.10121 -0.184945,-0.0787 -0.170823,-0.39977 z m 13.334817,0 c 0.0156,-0.35483 0.0927,-0.427 0.1965,-0.18402 0.094,0.21987 0.0824,0.48258 -0.0257,0.58379 -0.10807,0.10121 -0.18494,-0.0787 -0.17082,-0.39977 z M 30.432997,88.492301 c 0.0066,-0.502567 0.07952,-0.671289 0.161982,-0.374936 0.08246,0.296353 0.07704,0.707544 -0.01207,0.913757 -0.08909,0.206214 -0.156561,-0.03625 -0.149933,-0.538821 z m 146.683033,0 c 0.007,-0.502567 0.0795,-0.671289 0.16198,-0.374936 0.0825,0.296353 0.077,0.707544 -0.0121,0.913757 -0.0891,0.206214 -0.15656,-0.03625 -0.14993,-0.538821 z M 30.77685,83.009756 c 0.0036,-0.670089 0.07022,-0.908351 0.14801,-0.529474 0.07779,0.378877 0.07484,0.927132 -0.0066,1.218343 -0.0814,0.291212 -0.145057,-0.01879 -0.141447,-0.688869 z m 57.424396,-0.969531 c 0.23478,-0.08799 0.515303,-0.07717 0.623377,0.02403 0.108073,0.101214 -0.08402,0.1732 -0.426877,0.159975 -0.378888,-0.01462 -0.455954,-0.08679 -0.1965,-0.184019 z m 30.897754,0 c 0.23478,-0.08799 0.5153,-0.07717 0.62338,0.02403 0.10807,0.101214 -0.084,0.1732 -0.42688,0.159975 -0.37889,-0.01462 -0.45595,-0.08679 -0.1965,-0.184019 z m -16.77016,-0.320403 c 0.84969,-0.06274 2.24009,-0.06274 3.08977,0 0.84969,0.06275 0.15449,0.11408 -1.54488,0.11408 -1.69938,0 -2.39458,-0.05133 -1.54489,-0.11408 z M 31.284327,79.298953 c 0.234781,-0.08799 0.5153,-0.07717 0.623377,0.02403 0.108074,0.101213 -0.08402,0.173199 -0.426877,0.159974 -0.378887,-0.01462 -0.455953,-0.08679 -0.1965,-0.184018 z m 144.731593,0 c 0.23478,-0.08799 0.5153,-0.07717 0.62338,0.02403 0.10807,0.101213 -0.084,0.173199 -0.42688,0.159974 -0.37889,-0.01462 -0.45595,-0.08679 -0.1965,-0.184018 z"
         id="path2245" />
      <path
         style="fill:#a3a3a3;fill-opacity:1;stroke-width:0.314743"
         d="m 89.614538,192.20378 c 0,-0.4188 0.07382,-0.59013 0.164048,-0.38073 0.09022,0.2094 0.09022,0.55206 0,0.76147 -0.09023,0.2094 -0.164048,0.0381 -0.164048,-0.38074 z m 28.295842,0 c 0,-0.4188 0.0738,-0.59013 0.16405,-0.38073 0.0902,0.2094 0.0902,0.55206 0,0.76147 -0.0902,0.2094 -0.16405,0.0381 -0.16405,-0.38074 z m -18.996557,-7.81636 c 0.223602,-0.0845 0.589497,-0.0845 0.813099,0 0.223602,0.0845 0.04066,0.15363 -0.40655,0.15363 -0.447204,0 -0.630151,-0.0691 -0.406549,-0.15363 z m 9.106707,0 c 0.2236,-0.0845 0.5895,-0.0845 0.8131,0 0.2236,0.0845 0.0406,0.15363 -0.40655,0.15363 -0.44721,0 -0.63015,-0.0691 -0.40655,-0.15363 z m -6.01693,-0.32796 c 1.02857,-0.0604 2.71168,-0.0604 3.74025,0 1.02857,0.0605 0.18702,0.10991 -1.87012,0.10991 -2.05714,0 -2.8987,-0.0495 -1.87013,-0.10991 z m -3.012038,-0.68242 c 0.189504,-0.3316 0.270612,-0.98265 0.180238,-1.44678 -0.14201,-0.72931 -0.115327,-0.7118 0.196555,0.12893 0.380917,1.02682 0.206641,1.92077 -0.374458,1.92077 -0.244905,0 -0.245595,-0.17725 -0.0023,-0.60292 z m 9.262328,-0.0896 c -0.10208,-0.38086 -0.0283,-1.03192 0.1639,-1.44679 0.34799,-0.75107 0.34873,-0.75069 0.17152,0.0896 -0.0979,0.46413 -0.0229,1.11518 0.16658,1.44678 0.22841,0.39969 0.23315,0.60292 0.0141,0.60292 -0.18177,0 -0.414,-0.31161 -0.51607,-0.69247 z m -0.42201,-1.8965 c -0.005,-0.33505 0.11622,-0.8833 0.26996,-1.21835 0.35614,-0.77615 0.35614,0.0246 0,1.06605 -0.20933,0.61214 -0.26227,0.64201 -0.26996,0.1523 z m -8.48583,-1.24373 c 0.01561,-0.35483 0.09267,-0.427 0.196497,-0.18402 0.09395,0.21987 0.0824,0.48258 -0.02566,0.58379 -0.108074,0.10121 -0.184944,-0.0787 -0.170822,-0.39977 z m 0.624801,-0.56581 c 0,-0.2414 0.132709,-0.51572 0.294909,-0.6096 0.1622,-0.0939 0.21831,0.10363 0.12469,0.43891 -0.1986,0.7112 -0.419599,0.8011 -0.419599,0.17069 z m 7.340669,-0.13576 c -0.098,-0.14854 0.0282,-0.4305 0.28045,-0.62658 0.37479,-0.2913 0.42669,-0.24189 0.28373,0.27007 -0.19319,0.69185 -0.29883,0.7586 -0.56418,0.35651 z m -0.13968,-1.25286 c 0,-0.25128 0.12578,-0.731 0.27952,-1.06605 0.17619,-0.38397 0.27952,-0.44027 0.27952,-0.15229 0,0.25128 -0.12578,0.73101 -0.27952,1.06605 -0.17619,0.38397 -0.27952,0.44027 -0.27952,0.15229 z m -6.99819,-0.46865 c -0.11154,-0.27221 -0.193523,-0.65505 -0.182182,-0.85075 0.01135,-0.1957 0.160842,-0.0275 0.332222,0.37372 0.17139,0.40125 0.25337,0.78408 0.18219,0.85075 -0.0712,0.0667 -0.22069,-0.10151 -0.33223,-0.37372 z m 5.00103,-1.98601 c 0,-0.17741 0.14636,-0.23785 0.32524,-0.13432 0.17889,0.10354 0.32524,0.24869 0.32524,0.32257 0,0.0739 -0.14635,0.13431 -0.32524,0.13431 -0.17888,0 -0.32524,-0.14515 -0.32524,-0.32256 z m 1.49708,0.0687 c -0.0921,-0.1396 0.0392,-0.25382 0.29174,-0.25382 0.25259,0 0.38387,0.11422 0.29174,0.25382 -0.0921,0.1396 -0.22341,0.25382 -0.29174,0.25382 -0.0683,0 -0.19961,-0.11422 -0.29174,-0.25382 z m -0.18616,-0.81223 c 0,-0.16752 0.14188,-0.51018 0.31528,-0.76146 0.17341,-0.25129 0.31528,-0.31982 0.31528,-0.1523 0,0.16753 -0.14187,0.51019 -0.31528,0.76147 -0.1734,0.25128 -0.31528,0.31981 -0.31528,0.15229 z m -0.30952,-1.24372 c 0.0156,-0.35483 0.0927,-0.427 0.1965,-0.18402 0.094,0.21987 0.0824,0.48258 -0.0257,0.58379 -0.10808,0.10121 -0.18495,-0.0787 -0.17083,-0.39977 z m -5.20383,-1.21835 c 0.0156,-0.35482 0.0927,-0.42699 0.19649,-0.18402 0.094,0.21987 0.0824,0.48258 -0.0257,0.58379 -0.10807,0.10121 -0.18494,-0.0787 -0.17082,-0.39977 z m 5.52907,0 c 0.0156,-0.35482 0.0927,-0.42699 0.1965,-0.18402 0.094,0.21987 0.0824,0.48258 -0.0257,0.58379 -0.10808,0.10121 -0.18495,-0.0787 -0.17083,-0.39977 z m -0.35894,-3.71995 0.15688,-1.43262 0.11038,1.18233 c 0.0607,0.65029 -0.01,1.29497 -0.15688,1.43262 -0.14699,0.13766 -0.19666,-0.39439 -0.11038,-1.18233 z m -4.78199,-0.062 c 0,-0.75385 0.0634,-1.06224 0.14095,-0.68532 0.0775,0.37693 0.0775,0.99372 0,1.37064 -0.0775,0.37693 -0.14095,0.0685 -0.14095,-0.68532 z m -0.3208,-6.24401 c 0.003,-0.83761 0.0656,-1.14412 0.14037,-0.68113 0.0748,0.46299 0.0727,1.14831 -0.004,1.52293 -0.0772,0.37462 -0.13836,-0.004 -0.13592,-0.8418 z m 4.62295,1.06605 c 0.11056,-0.16752 0.26555,-0.30458 0.34444,-0.30458 0.0789,0 0.14342,0.13706 0.14342,0.30458 0,0.16753 -0.15499,0.30459 -0.34443,0.30459 -0.18944,0 -0.25398,-0.13706 -0.14343,-0.30459 z m 0.90168,-0.91375 c 0,-0.75385 0.0634,-1.06225 0.14095,-0.68532 0.0775,0.37692 0.0775,0.99371 0,1.37063 -0.0775,0.37693 -0.14095,0.0685 -0.14095,-0.68531 z m -5.21695,-3.04586 c 0,-0.58633 0.0669,-0.82619 0.14874,-0.53303 0.0818,0.29317 0.0818,0.77289 0,1.06605 -0.0818,0.29317 -0.14874,0.0533 -0.14874,-0.53302 z m 4.89615,-0.45688 c 0.003,-0.83761 0.0656,-1.14412 0.14037,-0.68113 0.0748,0.46299 0.0728,1.1483 -0.004,1.52293 -0.0772,0.37462 -0.13836,-0.004 -0.13592,-0.8418 z m -76.849547,0.64646 c 0,-0.0632 0.256126,-0.30311 0.569169,-0.53302 0.515849,-0.37887 0.527353,-0.36809 0.122797,0.115 -0.424883,0.50736 -0.691966,0.66871 -0.691966,0.41802 z m 148.267737,-0.41802 c -0.40455,-0.48309 -0.39305,-0.49387 0.1228,-0.115 0.31304,0.22991 0.56917,0.46978 0.56917,0.53302 0,0.25069 -0.26708,0.0893 -0.69197,-0.41802 z m -77.04028,-1.59908 c 0,-0.50256 0.12101,-0.91376 0.26891,-0.91376 0.1479,0 0.20447,0.4112 0.12571,0.91376 -0.0788,0.50257 -0.19978,0.91376 -0.26891,0.91376 -0.0691,0 -0.12571,-0.41119 -0.12571,-0.91376 z m 6.25501,0 c 0,-0.58633 0.0669,-0.82619 0.14874,-0.53302 0.0818,0.29316 0.0818,0.77288 0,1.06605 -0.0818,0.29316 -0.14874,0.0533 -0.14874,-0.53303 z m -1.15468,-1.42634 c 0.52289,-0.40783 0.69291,-0.84701 0.64618,-1.66907 -0.0349,-0.61358 0.0483,-1.05095 0.18481,-0.97193 0.13653,0.079 0.24823,0.77522 0.24823,1.5471 0,0.77189 -0.0924,1.31687 -0.20538,1.21109 -0.11296,-0.10579 -0.51545,-0.0509 -0.89441,0.12197 -0.67484,0.30784 -0.67442,0.30291 0.0206,-0.23916 z M 101.05498,155.21 c 0,-0.57896 0.0907,-1.00017 0.20151,-0.93602 0.23516,0.13611 0.20586,1.60718 -0.0365,1.83418 -0.0907,0.085 -0.16498,-0.3192 -0.16498,-0.89816 z m 6.13455,-1.84091 c 0.007,-0.50257 0.0795,-0.67129 0.16198,-0.37494 0.0825,0.29635 0.077,0.70754 -0.0121,0.91376 -0.0891,0.20621 -0.15656,-0.0363 -0.14993,-0.53882 z m -6.84209,-0.1523 c 0,-0.4188 0.0738,-0.59013 0.16405,-0.38073 0.0902,0.2094 0.0902,0.55206 0,0.76147 -0.0902,0.2094 -0.16405,0.0381 -0.16405,-0.38074 z m -0.28357,-5.33025 c 0.003,-0.83761 0.0656,-1.14412 0.14037,-0.68113 0.0748,0.46299 0.0728,1.14831 -0.004,1.52293 -0.0772,0.37462 -0.13836,-0.004 -0.13592,-0.8418 z m 0.60881,0.76147 c 0,-0.41881 0.0738,-0.59014 0.16405,-0.38074 0.0902,0.20941 0.0902,0.55207 0,0.76147 -0.0902,0.2094 -0.16405,0.0381 -0.16405,-0.38073 z m 6.8717,-0.76147 c 0.003,-0.83761 0.0656,-1.14412 0.14037,-0.68113 0.0748,0.46299 0.0728,1.14831 -0.004,1.52293 -0.0772,0.37462 -0.13836,-0.004 -0.13592,-0.8418 z m -7.15527,-3.35044 c 0.003,-0.83761 0.0656,-1.14412 0.14037,-0.68113 0.0748,0.46299 0.0728,1.1483 -0.004,1.52293 -0.0772,0.37462 -0.13836,-0.004 -0.13592,-0.8418 z m 6.83447,-0.1523 c 0,-0.92137 0.061,-1.29829 0.13549,-0.83761 0.0745,0.46069 0.0745,1.21454 0,1.67523 -0.0745,0.46068 -0.13549,0.0838 -0.13549,-0.83762 z m -7.502513,-1.21834 c 0,-0.58633 0.06694,-0.82619 0.148742,-0.53302 0.0818,0.29316 0.0818,0.77288 0,1.06605 -0.08181,0.29316 -0.148742,0.0533 -0.148742,-0.53303 z m 8.130993,0 c 0,-0.58633 0.0669,-0.82619 0.14874,-0.53302 0.0818,0.29316 0.0818,0.77288 0,1.06605 -0.0818,0.29316 -0.14874,0.0533 -0.14874,-0.53303 z m -0.31868,-2.28439 c 0.004,-0.67009 0.0702,-0.90835 0.14801,-0.52948 0.0778,0.37888 0.0748,0.92714 -0.007,1.21835 -0.0814,0.29121 -0.14506,-0.0188 -0.14145,-0.68887 z m -7.48707,-0.1523 c 0,-0.58632 0.0669,-0.82618 0.14874,-0.53302 0.0818,0.29316 0.0818,0.77289 0,1.06605 -0.0818,0.29316 -0.14874,0.0533 -0.14874,-0.53303 z m -0.643919,-2.28439 c 0.0036,-0.67009 0.07022,-0.90835 0.14801,-0.52947 0.07779,0.37887 0.07484,0.92713 -0.0066,1.21834 -0.0814,0.29121 -0.145056,-0.0188 -0.141446,-0.68887 z m 8.788029,-0.45688 c 0,-0.75385 0.0634,-1.06224 0.14095,-0.68532 0.0775,0.37693 0.0775,0.99371 0,1.37064 -0.0775,0.37692 -0.14095,0.0685 -0.14095,-0.68532 z m -0.38814,-3.22353 c 0.0156,-0.35483 0.0927,-0.427 0.19649,-0.18402 0.094,0.21987 0.0824,0.48258 -0.0257,0.58379 -0.10807,0.10121 -0.18494,-0.0787 -0.17082,-0.39977 z m -8.923456,-0.73608 c 0.204354,-0.25129 0.43116,-0.73101 0.504014,-1.06605 0.108165,-0.49742 0.166373,-0.45358 0.317291,0.23898 0.101653,0.46648 0.107849,0.77606 0.01376,0.68796 -0.09408,-0.0881 -0.404058,0.01 -0.688838,0.2179 -0.438305,0.32005 -0.46075,0.30795 -0.146234,-0.0788 z m 9.613306,-0.0609 c -0.21466,-0.20103 -0.37331,-0.64649 -0.35256,-0.98991 0.037,-0.61173 0.041,-0.61205 0.19762,-0.0152 0.0879,0.33504 0.30841,0.7805 0.48995,0.9899 0.42104,0.48567 0.17907,0.49667 -0.33501,0.0152 z m -8.03342,-0.85284 c 0.11056,-0.16752 0.26555,-0.30459 0.34444,-0.30459 0.0789,0 0.14342,0.13707 0.14342,0.30459 0,0.16752 -0.155,0.30458 -0.34444,0.30458 -0.18943,0 -0.25397,-0.13706 -0.14342,-0.30458 z m -1.475019,-2.11208 c 0.185175,-0.32403 0.353659,-1.04361 0.374409,-1.59908 0.02147,-0.57435 0.104578,-0.76691 0.192724,-0.44648 0.216099,0.78557 -0.192282,2.63471 -0.581873,2.63471 -0.207353,0 -0.202107,-0.2097 0.01473,-0.58915 z m 9.275659,-0.34639 c -0.30563,-1.30315 -0.0527,-1.37981 0.37091,-0.11241 0.19263,0.57637 0.23735,1.04795 0.0994,1.04795 -0.13798,0 -0.3496,-0.42099 -0.47028,-0.93554 z m -9.534176,-1.80573 c 0.0053,-0.25129 0.12674,-0.79954 0.269959,-1.21835 0.209334,-0.61213 0.262273,-0.642 0.269958,-0.15229 0.0053,0.33504 -0.116221,0.8833 -0.269958,1.21834 -0.171249,0.37322 -0.275816,0.4322 -0.269959,0.1523 z m 9.277456,-0.10737 c -0.13069,-0.31896 -0.0893,-0.45862 0.10293,-0.34736 0.18047,0.10445 0.33574,-0.18926 0.35394,-0.66949 l 0.0324,-0.85559 0.2604,0.76146 c 0.14322,0.41881 0.27275,0.96706 0.28784,1.21835 0.0224,0.37279 -0.0243,0.38046 -0.25345,0.0417 -0.22821,-0.33733 -0.30758,-0.34021 -0.42319,-0.0154 -0.10063,0.2827 -0.20632,0.24356 -0.36089,-0.13365 z m -9.657976,-3.09079 c 0,-0.4188 0.126063,-0.76146 0.280138,-0.76146 0.154076,0 0.210193,0.34266 0.124704,0.76146 -0.08549,0.41881 -0.211549,0.76147 -0.280139,0.76147 -0.06859,0 -0.124703,-0.34266 -0.124703,-0.76147 z m 10.758586,0.24642 c -0.0141,-0.36704 -0.1438,-0.73571 -0.28816,-0.81926 -0.33955,-0.19653 -0.23192,-1.95121 0.17971,-2.92989 l 0.32027,-0.76147 0.23744,1.01169 c 0.13059,0.55642 0.15033,1.09325 0.0439,1.19296 -0.10647,0.0997 -0.19357,-0.12378 -0.19357,-0.49664 0,-0.37285 -0.10977,-0.61438 -0.24393,-0.53673 -0.30388,0.17587 -0.26071,1.99834 0.064,2.70214 0.13271,0.28764 0.16586,0.69883 0.0737,0.91376 -0.0922,0.21493 -0.17918,0.0905 -0.1933,-0.27656 z m -10.357891,-2.22622 c 0,-0.58633 0.06693,-0.82619 0.148742,-0.53303 0.0818,0.29317 0.0818,0.77289 0,1.06605 -0.08181,0.29317 -0.148742,0.0533 -0.148742,-0.53302 z m -0.610032,-0.87569 c 0.115134,-0.56539 0.209337,-1.43012 0.209337,-1.92164 0,-0.49151 0.126983,-0.82016 0.282187,-0.73033 0.28091,0.16259 -0.172045,3.23413 -0.520214,3.52766 -0.09936,0.0838 -0.08644,-0.3103 0.02869,-0.87569 z m 10.617003,-3.08393 c 0,-0.16752 0.15499,-0.30459 0.34443,-0.30459 0.18944,0 0.25398,0.13707 0.14343,0.30459 -0.11056,0.16752 -0.26555,0.30459 -0.34444,0.30459 -0.0789,0 -0.14342,-0.13707 -0.14342,-0.30459 z m -11.319979,-2.28439 c 0.0066,-0.50257 0.07952,-0.67129 0.161982,-0.37494 0.08246,0.29635 0.07704,0.70754 -0.01207,0.91376 -0.08909,0.20621 -0.15656,-0.0363 -0.149932,-0.53882 z m 12.684339,0 c 0.007,-0.50257 0.0795,-0.67129 0.16198,-0.37494 0.0825,0.29635 0.077,0.70754 -0.0121,0.91376 -0.0891,0.20621 -0.15656,-0.0363 -0.14993,-0.53882 z m -12.34705,-1.97981 c 0,-0.58633 0.06693,-0.82619 0.148742,-0.53303 0.0818,0.29317 0.0818,0.77289 0,1.06605 -0.08181,0.29317 -0.148742,0.0533 -0.148742,-0.53302 z m 12.02181,0.15229 c 0.007,-0.50257 0.0795,-0.67129 0.16199,-0.37493 0.0825,0.29635 0.077,0.70754 -0.0121,0.91375 -0.0891,0.20622 -0.15656,-0.0362 -0.14993,-0.53882 z M 97.069373,114.6613 c 0.01561,-0.35482 0.09267,-0.427 0.196497,-0.18402 0.09395,0.21987 0.0824,0.48258 -0.02566,0.58379 -0.108074,0.10121 -0.184945,-0.0787 -0.170823,-0.39977 z m 13.334817,0 c 0.0156,-0.35482 0.0927,-0.427 0.1965,-0.18402 0.094,0.21987 0.0824,0.48258 -0.0257,0.58379 -0.10807,0.10121 -0.18494,-0.0787 -0.17082,-0.39977 z m -12.971849,-1.49755 c 0.0066,-0.50256 0.07952,-0.67128 0.161982,-0.37493 0.08246,0.29635 0.07704,0.70754 -0.01207,0.91376 -0.08909,0.20621 -0.15656,-0.0363 -0.149932,-0.53883 z m 12.684339,0 c 0.007,-0.50256 0.0795,-0.67128 0.16198,-0.37493 0.0825,0.29635 0.077,0.70754 -0.0121,0.91376 -0.0891,0.20621 -0.15656,-0.0363 -0.14993,-0.53883 z m -13.883354,-4.10027 c -0.116368,-0.49617 -0.09141,-1.1031 0.05547,-1.34873 0.173203,-0.28967 0.278005,0.0273 0.298232,0.90212 0.03644,1.57579 -0.06024,1.69786 -0.353698,0.44661 z m 14.850954,0.59754 c 0.005,-0.25129 0.12674,-0.79954 0.26996,-1.21835 0.20933,-0.61213 0.26227,-0.642 0.26995,-0.15229 0.005,0.33505 -0.11622,0.8833 -0.26995,1.21834 -0.17125,0.37322 -0.27582,0.43221 -0.26996,0.1523 z m 0.62087,-2.91895 c 0.0156,-0.35483 0.0927,-0.427 0.1965,-0.18402 0.0939,0.21987 0.0824,0.48258 -0.0257,0.58379 -0.10808,0.10121 -0.18495,-0.0787 -0.17082,-0.39977 z m -16.238382,-1.19296 c -0.02163,-0.33505 0.08444,-0.79199 0.235689,-1.01544 0.220089,-0.32516 0.315758,-0.30679 0.479152,0.092 0.112286,0.27403 0.06994,0.42056 -0.0941,0.32561 -0.164044,-0.0949 -0.361972,0.13779 -0.439841,0.51721 -0.121057,0.58983 -0.147281,0.60153 -0.180895,0.0807 z m 16.563622,-0.0254 c 0.0156,-0.35483 0.0927,-0.427 0.1965,-0.18403 0.094,0.21988 0.0824,0.48258 -0.0257,0.5838 -0.10808,0.10121 -0.18495,-0.0787 -0.17083,-0.39977 z m -16.912454,-1.52293 c 0.01561,-0.35483 0.09267,-0.427 0.196497,-0.18402 0.09395,0.21987 0.0824,0.48257 -0.02566,0.58379 -0.108073,0.10121 -0.184944,-0.0787 -0.170822,-0.39977 z m 17.237694,0 c 0.0156,-0.35483 0.0927,-0.427 0.1965,-0.18402 0.0939,0.21987 0.0824,0.48257 -0.0257,0.58379 -0.10808,0.10121 -0.18495,-0.0787 -0.17083,-0.39977 z m -17.562933,-1.21835 c 0.01561,-0.35482 0.09267,-0.42699 0.196496,-0.18402 0.09395,0.21987 0.0824,0.48258 -0.02566,0.58379 -0.108074,0.10121 -0.184944,-0.0787 -0.170822,-0.39977 z m 17.768263,-0.12692 c -0.0936,-0.33504 -0.0374,-0.60917 0.12468,-0.60917 0.16214,0 0.29479,0.27413 0.29479,0.60917 0,0.33505 -0.0561,0.60917 -0.12468,0.60917 -0.0686,0 -0.20124,-0.27412 -0.29479,-0.60917 z m -74.54824,-1.52293 c 0.323773,-0.33504 0.661856,-0.60917 0.751297,-0.60917 0.08944,0 -0.102284,0.27413 -0.426057,0.60917 -0.323773,0.33505 -0.661856,0.60918 -0.751297,0.60918 -0.08944,0 0.102285,-0.27413 0.426057,-0.60918 z m 56.454737,0.12692 c 0.01561,-0.35483 0.09267,-0.427 0.196497,-0.18403 0.09395,0.21988 0.0824,0.48258 -0.02566,0.58379 -0.108074,0.10122 -0.184944,-0.0787 -0.170822,-0.39976 z m 18.538653,0 c 0.0156,-0.35483 0.0927,-0.427 0.1965,-0.18403 0.0939,0.21988 0.0824,0.48258 -0.0257,0.58379 -0.10808,0.10122 -0.18495,-0.0787 -0.17083,-0.39976 z m 56.37248,-0.20306 -0.61958,-0.68532 0.73179,0.58023 c 0.6877,0.54528 0.87985,0.79041 0.61958,0.79041 -0.0617,0 -0.39102,-0.3084 -0.73179,-0.68532 z m -75.731839,-3.1389 c -0.12245,-0.611256 -0.157589,-1.172294 -0.07808,-1.246746 0.0795,-0.07446 0.244737,0.364747 0.367183,0.976005 0.122449,0.611255 0.157588,1.172293 0.07808,1.246746 -0.0795,0.07446 -0.244736,-0.364747 -0.367183,-0.976005 z m 20.048999,0.626094 c 0,-0.335044 0.11718,-0.951831 0.2604,-1.370636 0.20619,-0.602952 0.2604,-0.634657 0.2604,-0.152293 0,0.335044 -0.11718,0.951831 -0.2604,1.370636 -0.20619,0.602952 -0.2604,0.634656 -0.2604,0.152293 z M 93.166499,95.77698 c 0.01561,-0.354827 0.09267,-0.426999 0.196497,-0.184021 0.09395,0.219871 0.0824,0.482576 -0.02566,0.58379 -0.108074,0.101211 -0.184944,-0.07869 -0.170822,-0.399769 z m 21.140571,0 c 0.0156,-0.354827 0.0927,-0.426999 0.1965,-0.184021 0.094,0.219871 0.0824,0.482576 -0.0257,0.58379 -0.10807,0.101211 -0.18494,-0.07869 -0.17082,-0.399769 z M 92.571437,93.746407 c -0.349661,-0.894965 -0.340903,-0.933199 0.09131,-0.398663 0.413626,0.511542 0.657901,1.388567 0.386755,1.388567 -0.05022,0 -0.265356,-0.445457 -0.47807,-0.989904 z m 22.060873,0.667387 c -0.0141,-0.261146 0.20193,-0.740868 0.48012,-1.06605 0.49771,-0.581781 0.50102,-0.581494 0.20657,0.01794 -0.16458,0.335044 -0.38064,0.814767 -0.48013,1.06605 -0.15625,0.394664 -0.18438,0.392225 -0.20656,-0.01794 z M 93.290067,93.193118 c -0.117909,-0.178667 -0.144627,-0.390175 -0.05937,-0.470016 0.08525,-0.07984 0.241672,0.06634 0.347599,0.32485 0.219921,0.536714 0.03249,0.63112 -0.288227,0.145166 z m -1.775443,-1.19808 c -0.191469,-0.335044 -0.274948,-0.609171 -0.185507,-0.609171 0.08944,0 0.319278,0.274127 0.510746,0.609171 0.191469,0.335045 0.274948,0.609172 0.185507,0.609172 -0.08944,0 -0.319278,-0.274127 -0.510746,-0.609172 z m 24.239146,0.291245 c 0.1154,-0.174862 0.0143,-0.551787 -0.22473,-0.837611 -0.38199,-0.456827 -0.37192,-0.473954 0.0832,-0.141596 0.28478,0.20795 0.63392,0.276482 0.77585,0.152293 0.14193,-0.124186 0.0867,0.0826 -0.12268,0.459523 -0.20941,0.376925 -0.4574,0.685318 -0.55111,0.685318 -0.0937,0 -0.076,-0.143067 0.0394,-0.317927 z M 90.538905,90.472109 c -0.191469,-0.335044 -0.274948,-0.609172 -0.185507,-0.609172 0.08944,0 0.319278,0.274128 0.510746,0.609172 0.191469,0.335044 0.274948,0.609172 0.185507,0.609172 -0.08944,0 -0.319278,-0.274128 -0.510746,-0.609172 z m 26.344405,0 c 0.19147,-0.335044 0.4213,-0.609172 0.51074,-0.609172 0.0894,0 0.006,0.274128 -0.1855,0.609172 -0.19147,0.335044 -0.42131,0.609172 -0.51075,0.609172 -0.0894,0 -0.006,-0.274128 0.18551,-0.609172 z M 89.449622,88.999945 c -0.460103,-0.476125 -0.467531,-0.558409 -0.05041,-0.558409 0.269067,0 0.417301,0.06734 0.329415,0.149652 -0.08789,0.08231 0.0033,0.333591 0.202442,0.558406 0.547359,0.617645 0.136669,0.489987 -0.481449,-0.149649 z m 28.522328,6.09e-4 c 0.29644,-0.306757 0.42889,-0.671392 0.29433,-0.810299 -0.13455,-0.138903 -0.0521,-0.14844 0.1831,-0.0212 0.34067,0.184272 0.31386,0.349205 -0.13171,0.810299 -0.30771,0.318411 -0.63264,0.578932 -0.72208,0.578932 -0.0894,0 0.0799,-0.250984 0.37636,-0.557742 z M 43.012446,87.806983 c -0.404556,-0.483092 -0.393052,-0.493865 0.122797,-0.115 0.313043,0.229917 0.569169,0.469778 0.569169,0.533026 0,0.250686 -0.267083,0.08934 -0.691966,-0.418026 z M 164.5309,87.730836 c 0.32377,-0.335044 0.66185,-0.609171 0.7513,-0.609171 0.0894,0 -0.10229,0.274127 -0.42606,0.609171 -0.32377,0.335045 -0.66186,0.609172 -0.7513,0.609172 -0.0894,0 0.10229,-0.274127 0.42606,-0.609172 z M 88.220741,87.502397 c -0.404556,-0.483091 -0.393052,-0.493865 0.122797,-0.114999 0.541768,0.397901 0.714057,0.648024 0.446372,0.648024 -0.06754,0 -0.323662,-0.239861 -0.569169,-0.533025 z m 30.613999,0.418026 c 0,-0.06325 0.25613,-0.303109 0.56917,-0.533025 0.51585,-0.378866 0.52736,-0.368092 0.1228,0.114999 -0.42488,0.507364 -0.69197,0.668712 -0.69197,0.418026 z m 1.25832,-1.512101 c 0.19923,-0.224815 0.29033,-0.476099 0.20244,-0.558407 -0.0879,-0.08231 0.0603,-0.149652 0.32941,-0.149652 0.41713,0 0.4097,0.08228 -0.0504,0.558409 -0.61812,0.639637 -1.02881,0.767295 -0.48145,0.14965 z M 86.985302,86.082731 c -0.277833,-0.31351 -0.282753,-0.486545 -0.01818,-0.639672 0.19947,-0.115451 0.450506,-0.127652 0.557861,-0.02711 0.107352,0.100538 0.0065,0.182795 -0.224084,0.182795 -0.335806,0 -0.338672,0.09095 -0.01438,0.456878 0.222688,0.251284 0.331708,0.456879 0.242267,0.456879 -0.08944,0 -0.334004,-0.193394 -0.543475,-0.429761 z M 32.346706,85.725647 c 0.01561,-0.354827 0.09267,-0.426999 0.196497,-0.184021 0.09395,0.219871 0.0824,0.482576 -0.02566,0.58379 -0.108077,0.101211 -0.184944,-0.07869 -0.170822,-0.399769 z m 142.780154,0 c 0.0156,-0.354827 0.0927,-0.426999 0.1965,-0.184021 0.0939,0.219871 0.0824,0.482576 -0.0257,0.58379 -0.10808,0.101211 -0.18495,-0.07869 -0.17083,-0.399769 z M 85.944064,84.761124 c -0.394942,-0.471611 -0.386716,-0.489463 0.07141,-0.154936 0.284779,0.207949 0.637551,0.276481 0.783931,0.152293 0.146384,-0.124186 0.16087,-0.05447 0.0322,0.154936 -0.302405,0.492117 -0.355516,0.483003 -0.887537,-0.152293 z m 35.275766,0.126912 c 0,-0.223365 0.19282,-0.406116 0.42849,-0.406116 0.3202,0 0.33754,0.102636 0.0686,0.406116 -0.19794,0.223362 -0.39076,0.406114 -0.42849,0.406114 -0.0377,0 -0.0686,-0.182752 -0.0686,-0.406114 z M 84.643106,83.238195 c -0.404556,-0.483091 -0.393052,-0.493865 0.122797,-0.114999 0.541768,0.397901 0.714057,0.648024 0.446372,0.648024 -0.06754,0 -0.323662,-0.239861 -0.569169,-0.533025 z m 1.047661,0.327226 c 0.124486,-0.671088 -0.09355,-0.979484 -0.762244,-1.07814 -1.990645,-0.293684 8.691168,-0.673323 18.945207,-0.673323 10.48781,0 20.29682,0.336515 19.27044,0.661112 -0.2236,0.07071 -0.40655,0.262301 -0.40655,0.425751 0,0.163449 0.18295,0.194249 0.40655,0.06844 0.27624,-0.155424 0.26348,-0.06356 -0.0398,0.286609 -0.47093,0.543686 -0.85985,0.711562 -0.54571,0.235546 0.18583,-0.281572 -0.77897,-0.515695 -2.58556,-0.627429 -0.53664,-0.03319 -1.15223,-0.07108 -1.36796,-0.0842 -0.21573,-0.01313 -0.3199,-0.133469 -0.23149,-0.267441 0.0884,-0.133969 -5.91869,-0.2497 -13.34913,-0.257174 -10.659139,-0.01072 -13.510927,0.06745 -13.514856,0.370495 -0.0029,0.23723 -0.09635,0.267627 -0.24393,0.0795 -0.318659,-0.406193 -1.702528,-0.573051 -1.702528,-0.205282 0,0.159439 -0.182947,0.283527 -0.406549,0.275748 -1.639396,-0.05702 -3.178329,0.129019 -3.022357,0.365366 0.102919,0.155948 0.03475,0.371732 -0.15148,0.479518 -0.186232,0.10779 -0.317645,0.08299 -0.292033,-0.0551 z m 15.038973,-0.542267 c 0,-0.243915 0.12435,-0.371506 0.27634,-0.283539 0.15199,0.08797 0.19214,0.287533 0.0892,0.44348 -0.263,0.398515 -0.36556,0.353643 -0.36556,-0.159941 z m 7.80575,0 c 0,-0.243915 0.12435,-0.371506 0.27634,-0.283539 0.15199,0.08797 0.19214,0.287533 0.0892,0.44348 -0.263,0.398515 -0.36556,0.353643 -0.36556,-0.159941 z M 32.671946,82.679789 c 0.01561,-0.354828 0.09267,-0.426999 0.196496,-0.184022 0.09395,0.219871 0.0824,0.482577 -0.02566,0.583791 -0.108077,0.10121 -0.184944,-0.07869 -0.170822,-0.399769 z m 142.129674,0 c 0.0156,-0.354828 0.0927,-0.426999 0.1965,-0.184022 0.094,0.219871 0.0824,0.482577 -0.0257,0.583791 -0.10808,0.10121 -0.18495,-0.07869 -0.17083,-0.399769 z"
         id="path2243" />
      <path
         style="fill:#8c8c8c;fill-opacity:1;stroke-width:0.314743"
         d="m 99.320372,184.31631 c -0.68807,-0.17948 -0.72558,-0.2436 -0.243929,-0.41695 0.362538,-0.13049 0.560869,-0.51242 0.546308,-1.05203 -0.02059,-0.76312 -0.05336,-0.78673 -0.330235,-0.238 -0.270083,0.53525 -0.28935,0.51677 -0.158782,-0.15229 0.08173,-0.41881 0.321382,-1.70193 0.53256,-2.85138 0.264166,-1.43785 0.476136,-1.96053 0.679376,-1.67523 0.19369,0.27189 0.22435,0.12803 0.089,-0.41775 -0.1135,-0.45785 0.0548,-1.89701 0.374,-3.19815 0.47184,-1.92331 0.55731,-3.36248 0.45703,-7.69596 -0.0678,-2.93164 -0.1308,-6.32396 -0.13994,-7.5385 -0.009,-1.21453 -0.10873,-2.20825 -0.22131,-2.20825 -0.11259,0 -0.30446,-1.88462 -0.42639,-4.18805 -0.12192,-2.30343 -0.43102,-7.06639 -0.686882,-10.58436 -0.255862,-3.51797 -0.466474,-6.84985 -0.468026,-7.40418 -0.0016,-0.55434 -0.112588,-0.94418 -0.246749,-0.86633 -0.341713,0.19829 -0.306848,-2.04244 0.03542,-2.27618 0.15364,-0.10492 0.31921,-0.79024 0.367931,-1.52293 0.08084,-1.21576 0.06916,-1.23901 -0.133696,-0.26611 -0.183673,0.88088 -0.267995,0.60758 -0.485424,-1.57333 -0.144725,-1.45167 -0.165039,-2.78804 -0.04514,-2.96972 0.119896,-0.18168 0.08675,-0.33032 -0.07367,-0.33032 -0.160414,0 -0.474358,-1.6105 -0.697652,-3.57888 -0.223293,-1.96839 -0.682352,-5.73561 -1.02013,-8.37161 -0.337777,-2.636 -0.530917,-5.03461 -0.429202,-5.33025 0.143027,-0.41571 0.112387,-0.44221 -0.135196,-0.1169 -0.237603,0.31219 -0.38012,0.0766 -0.552822,-0.91376 -0.127979,-0.73391 -0.562804,-2.70502 -0.96628,-4.38025 -0.403479,-1.67522 -0.997064,-4.210895 -1.319084,-5.634834 -0.445825,-1.971414 -0.979179,-3.206546 -2.235937,-5.177959 -0.907747,-1.423939 -1.615953,-2.691778 -1.573792,-2.81742 0.04216,-0.125641 -0.0526,-0.194173 -0.210589,-0.152292 -0.472827,0.12534 -3.034206,-3.075532 -2.775172,-3.468042 0.140471,-0.212854 0.09554,-0.276092 -0.11117,-0.156454 -0.190815,0.11044 -0.811157,-0.348105 -1.378537,-1.018989 -0.955831,-1.130199 -0.981817,-1.219793 -0.353796,-1.219793 0.613883,0 0.836936,0.31888 0.708264,1.012544 -0.02563,0.138093 0.105801,0.162889 0.292033,0.0551 0.186229,-0.107786 0.254399,-0.32357 0.15148,-0.479518 -0.155972,-0.236347 1.382961,-0.422385 3.022357,-0.365366 0.223602,0.0078 0.406549,-0.116309 0.406549,-0.275748 0,-0.367769 1.383869,-0.200911 1.702528,0.205282 0.147558,0.188091 0.240853,0.157593 0.24393,-0.07974 0.0039,-0.303312 2.828846,-0.381335 13.401414,-0.370139 7.75982,0.0082 13.54984,0.133415 13.76104,0.29756 0.49848,0.387436 4.06552,0.635341 4.06552,0.282552 0,-0.155391 0.1538,-0.282528 0.34179,-0.282528 0.18798,0 -0.0478,0.478389 -0.52405,1.063084 -0.48273,0.592705 -1.0297,0.975402 -1.2362,0.864923 -0.2037,-0.108987 -0.26574,-0.08963 -0.13787,0.04302 0.34377,0.356615 -0.36769,1.431239 -0.78692,1.188597 -0.19755,-0.114335 -0.27266,-0.07679 -0.16692,0.08343 0.10573,0.160222 -0.54221,1.175111 -1.43988,2.255309 -0.89766,1.080199 -1.84882,2.35062 -2.11368,2.823161 -0.41894,0.747426 -0.55296,0.806845 -1.03048,0.456879 -0.49273,-0.361105 -0.50336,-0.347877 -0.1039,0.129214 0.38091,0.454933 0.36435,0.646803 -0.11494,1.331847 -0.52859,0.755501 -1.17933,3.011486 -2.12021,7.35038 -0.22705,1.04701 -0.53458,1.90366 -0.6834,1.90366 -0.14882,0 -0.19604,0.18195 -0.10491,0.40433 0.0911,0.22238 -0.14605,1.69582 -0.52704,3.2743 -0.72531,3.00499 -1.44539,8.0177 -2.46209,17.13932 -0.35707,3.20353 -0.69405,5.14258 -0.82047,4.72108 -0.20244,-0.67496 -0.21636,-0.66705 -0.24695,0.14031 -0.0182,0.48023 -0.17347,0.77394 -0.35394,0.66949 -0.1879,-0.10876 -0.23667,0.021 -0.11735,0.31215 0.16339,0.39876 0.25906,0.41712 0.47915,0.092 0.17449,-0.25778 0.26497,0.039 0.24756,0.81207 -0.0246,1.09037 -0.0577,1.13836 -0.31586,0.45688 -0.24236,-0.63985 -0.26237,-0.59362 -0.1253,0.28944 0.0897,0.578 0.27068,1.12626 0.40215,1.21835 0.13147,0.0921 0.23903,0.67478 0.23903,1.29487 0,1.12733 -0.32472,1.20556 -0.5376,0.12952 -0.0621,-0.31381 -0.14035,1.11668 -0.17393,3.17886 -0.0336,2.06219 -0.21035,5.74553 -0.39283,8.18521 -0.18248,2.43968 -0.56627,8.27356 -0.85288,12.96418 -0.2866,4.69063 -0.62896,9.51301 -0.7608,10.71642 -0.13185,1.20341 -0.12307,2.12051 0.0195,2.03798 0.14258,-0.0825 0.26029,0.37204 0.26159,1.01014 10e-4,0.63809 0.51355,3.52996 1.13834,6.42637 1.17706,5.45668 1.28232,6.11746 0.81074,5.08972 -0.2701,-0.58863 -0.2803,-0.58679 -0.30238,0.0544 -0.0126,0.36496 0.20713,0.87895 0.48823,1.1422 0.44081,0.41282 0.44447,0.47863 0.0266,0.47863 -0.26647,0 -0.74001,0.0918 -1.0523,0.20406 -0.38713,0.13911 -0.49298,0.0907 -0.33265,-0.1523 0.17417,-0.26391 -0.70283,-0.35635 -3.38085,-0.35635 -2.32787,0 -3.54442,0.10851 -3.41502,0.30459 0.22298,0.33789 0.0533,0.34262 -1.138336,0.0318 z m 8.671628,-3.45835 c -0.0902,-0.2094 -0.16405,-0.0381 -0.16405,0.38073 0,0.41881 0.0738,0.59014 0.16405,0.38073 0.0902,-0.2094 0.0902,-0.55206 0,-0.76146 z m -7.60155,-1.4472 c 0.0936,-0.33528 0.0375,-0.53278 -0.12469,-0.43891 -0.1622,0.0939 -0.294909,0.3682 -0.294909,0.6096 0,0.63041 0.220999,0.54051 0.419599,-0.17069 z m 7.38615,-0.16985 c 0,-0.26117 -0.14874,-0.38876 -0.33054,-0.28354 -0.1818,0.10522 -0.24635,0.31891 -0.14343,0.47485 0.27881,0.42248 0.47397,0.3437 0.47397,-0.19131 z m -0.4283,-1.40977 c -0.10383,-0.24298 -0.1809,-0.17081 -0.1965,0.18402 -0.0141,0.32108 0.0628,0.50098 0.17082,0.39977 0.10807,-0.10121 0.11963,-0.36392 0.0257,-0.58379 z m -1.52314,-1.90472 c 0,-0.0739 -0.14635,-0.21903 -0.32524,-0.32257 -0.17888,-0.10353 -0.32524,-0.0431 -0.32524,0.13432 0,0.17741 0.14636,0.32256 0.32524,0.32256 0.17889,0 0.32524,-0.0604 0.32524,-0.13431 z m 0.54742,-2.35948 c -0.10383,-0.24298 -0.18089,-0.17081 -0.1965,0.18402 -0.0141,0.32108 0.0627,0.50098 0.17082,0.39977 0.10808,-0.10121 0.11963,-0.36392 0.0257,-0.58379 z m -0.22218,-9.99423 c 0,-0.16752 -0.0645,-0.30458 -0.14342,-0.30458 -0.0789,0 -0.23388,0.13706 -0.34444,0.30458 -0.11055,0.16753 -0.046,0.30459 0.14343,0.30459 0.18944,0 0.34443,-0.13706 0.34443,-0.30459 z m -4.65439,-4.49264 c -0.0818,-0.29316 -0.14874,-0.0533 -0.14874,0.53303 0,0.58632 0.0669,0.82619 0.14874,0.53302 0.0818,-0.29316 0.0818,-0.77288 0,-1.06605 z m 4.88778,-0.60498 c -0.0748,-0.46299 -0.13792,-0.15648 -0.14037,0.68113 -0.002,0.83761 0.0587,1.21642 0.13593,0.8418 0.0772,-0.37463 0.0792,-1.05994 0.004,-1.52293 z m 0.21171,-1.99866 c 0.11296,0.10578 0.20538,-0.4392 0.20538,-1.21109 0,-0.77188 -0.1117,-1.46808 -0.24823,-1.5471 -0.13653,-0.079 -0.21969,0.35835 -0.18481,0.97193 0.0467,0.82206 -0.12329,1.26124 -0.64618,1.66907 -0.69499,0.54207 -0.69541,0.547 -0.0206,0.23916 0.37896,-0.17287 0.78144,-0.22776 0.89441,-0.12197 z m -5.17404,-1.3043 c 0.0201,-0.42984 -0.0541,-0.83401 -0.16497,-0.89815 -0.11083,-0.0641 -0.20151,0.35706 -0.20151,0.93602 0,1.19262 0.31046,1.16054 0.36648,-0.0379 z m -0.58473,-6.90486 c -0.0902,-0.2094 -0.16405,-0.0381 -0.16405,0.38074 0,0.4188 0.0738,0.59013 0.16405,0.38073 0.0902,-0.2094 0.0902,-0.55206 0,-0.76147 z m -0.30725,-4.4123 c -0.0748,-0.46299 -0.13792,-0.15648 -0.14037,0.68113 -0.002,0.83761 0.0587,1.21642 0.13593,0.8418 0.0772,-0.37463 0.0792,-1.05994 0.004,-1.52293 z m 6.82959,-0.30878 c -0.0745,-0.46068 -0.13549,-0.0838 -0.13549,0.83761 0,0.92138 0.061,1.2983 0.13549,0.83762 0.0745,-0.46069 0.0745,-1.21454 0,-1.67523 z m 0.32232,-3.1946 c -0.0778,-0.37887 -0.1444,-0.14061 -0.14801,0.52948 -0.004,0.67009 0.06,0.98008 0.14145,0.68887 0.0814,-0.29121 0.0844,-0.83947 0.007,-1.21835 z m -7.48634,-0.15584 c -0.0818,-0.29316 -0.14874,-0.0533 -0.14874,0.53302 0,0.58633 0.0669,0.82619 0.14874,0.53303 0.0818,-0.29316 0.0818,-0.77289 0,-1.06605 z m 7.80372,-5.6158 c -0.10382,-0.24298 -0.18089,-0.17081 -0.19649,0.18402 -0.0141,0.32108 0.0628,0.50098 0.17082,0.39977 0.10807,-0.10121 0.11963,-0.36392 0.0257,-0.58379 z m -8.28946,-1.38968 c -0.09423,-0.46068 -0.234104,-0.66175 -0.310818,-0.44683 -0.138338,0.38759 0.10914,1.28445 0.354429,1.28445 0.07025,0 0.05062,-0.37693 -0.04361,-0.83762 z m 1.23726,-0.0761 c 0,-0.16752 -0.0645,-0.30459 -0.14342,-0.30459 -0.0789,0 -0.23388,0.13707 -0.34444,0.30459 -0.11055,0.16752 -0.046,0.30458 0.14342,0.30458 0.18944,0 0.34444,-0.13706 0.34444,-0.30458 z m -1.736038,-5.86328 c -0.09022,-0.2094 -0.164047,-0.0381 -0.164047,0.38073 0,0.41881 0.07382,0.59014 0.164047,0.38074 0.09023,-0.20941 0.09023,-0.55207 0,-0.76147 z m 9.724888,-3.2982 c -0.0211,-0.68324 0.0754,-1.30811 0.21449,-1.38861 0.13909,-0.0805 0.24361,-0.37814 0.23227,-0.66142 -0.0327,-0.81686 -0.7065,0.8631 -0.77074,1.92164 -0.0515,0.84843 0.0517,1.37064 0.27081,1.37064 0.0503,0 0.0743,-0.55902 0.0532,-1.24225 z m -10.041329,-0.81371 c -0.08181,-0.29316 -0.148742,-0.0533 -0.148742,0.53303 0,0.58632 0.06693,0.82619 0.148742,0.53302 0.0818,-0.29316 0.0818,-0.77288 0,-1.06605 z m -0.160165,-1.76986 c 0.07436,-0.59649 0.01721,-1.15284 -0.127035,-1.23632 -0.144231,-0.0835 -0.262237,0.40457 -0.262237,1.08454 0,1.5261 0.207847,1.60714 0.389272,0.15178 z m 10.506254,-1.65673 c 0.11055,-0.16752 0.046,-0.30459 -0.14343,-0.30459 -0.18944,0 -0.34443,0.13707 -0.34443,0.30459 0,0.16752 0.0645,0.30459 0.14342,0.30459 0.0789,0 0.23388,-0.13707 0.34444,-0.30459 z m -11.321808,-4.79723 c -0.08181,-0.29316 -0.148742,-0.0533 -0.148742,0.53303 0,0.58633 0.06693,0.82619 0.148742,0.53302 0.0818,-0.29316 0.0818,-0.77288 0,-1.06605 z m 12.035058,0.31039 c -0.0825,-0.29636 -0.15536,-0.12764 -0.16199,0.37493 -0.007,0.50257 0.0608,0.74504 0.14994,0.53882 0.0891,-0.20621 0.0945,-0.6174 0.0121,-0.91375 z m -12.359107,-2.43669 c -0.08246,-0.29635 -0.155354,-0.12763 -0.161982,0.37493 -0.0066,0.50257 0.06084,0.74504 0.149932,0.53883 0.08909,-0.20622 0.09451,-0.61741 0.01207,-0.91376 z m 12.684337,0 c -0.0825,-0.29635 -0.15535,-0.12763 -0.16198,0.37493 -0.007,0.50257 0.0608,0.74504 0.14993,0.53883 0.0891,-0.20622 0.0945,-0.61741 0.0121,-0.91376 z m -14.098449,-8.16661 c -0.105928,-0.2585 -0.262348,-0.40469 -0.3476,-0.32485 -0.08526,0.0799 -0.05854,0.29135 0.05937,0.47002 0.320703,0.48595 0.508148,0.39155 0.288228,-0.14517 z M 93.578294,93.047952 c -0.105927,-0.258508 -0.262348,-0.404691 -0.347599,-0.32485 -0.08526,0.07984 -0.05854,0.291349 0.05937,0.470016 0.320703,0.485954 0.508148,0.391548 0.288227,-0.145166 z m 7.517006,-9.864857 c 0.10292,-0.155947 0.0628,-0.355512 -0.0892,-0.44348 -0.15199,-0.08797 -0.27634,0.03962 -0.27634,0.283539 0,0.513584 0.10256,0.558456 0.36556,0.159941 z m 7.80575,0 c 0.10292,-0.155947 0.0628,-0.355512 -0.0892,-0.44348 -0.15199,-0.08797 -0.27634,0.03962 -0.27634,0.283539 0,0.513584 0.10256,0.558456 0.36556,0.159941 z m -47.796323,97.876615 -0.975718,-0.78512 1.138338,0.688 c 1.460202,0.88253 1.463997,0.88555 1.111236,0.88376 -0.163976,-9.1e-4 -0.737211,-0.35482 -1.273856,-0.78664 z m 85.212753,0.0534 c 0.53665,-0.43181 1.10988,-0.7858 1.27386,-0.78663 0.35276,-0.002 0.34897,0.001 -1.11124,0.88376 l -1.13833,0.688 z m 2.00775,-1.11709 c 0.40352,-0.45743 2.38299,-1.62367 2.38299,-1.40397 0,0.071 -0.62202,0.51322 -1.38227,0.98277 -0.76025,0.46955 -1.21057,0.65909 -1.00072,0.4212 z M 57.871479,179.2492 c -0.347233,-0.24596 -0.49359,-0.44284 -0.32524,-0.43751 0.168351,0.005 0.590193,0.21093 0.937425,0.45688 0.347232,0.24596 0.49359,0.44283 0.32524,0.43751 -0.168351,-0.005 -0.590193,-0.21093 -0.937425,-0.45688 z m -2.133204,-1.37893 c 0,-0.17741 0.146358,-0.23785 0.325239,-0.13431 0.178882,0.10353 0.32524,0.24868 0.32524,0.32256 0,0.0739 -0.146358,0.13431 -0.32524,0.13431 -0.178881,0 -0.325239,-0.14515 -0.325239,-0.32256 z m 95.783045,0.018 c 0.11055,-0.16752 0.26555,-0.30459 0.34443,-0.30459 0.0789,0 0.14343,0.13707 0.14343,0.30459 0,0.16752 -0.155,0.30458 -0.34444,0.30458 -0.18944,0 -0.25398,-0.13706 -0.14342,-0.30458 z m -98.101209,-1.44678 c -0.404556,-0.4831 -0.393052,-0.49387 0.122797,-0.115 0.541768,0.3979 0.714057,0.64802 0.446372,0.64802 -0.06754,0 -0.323662,-0.23986 -0.569169,-0.53302 z m 99.917129,0.44683 c 0.0745,-0.0474 0.42823,-0.28726 0.78599,-0.53302 0.6017,-0.41333 0.61701,-0.40687 0.20411,0.0862 -0.24551,0.29316 -0.5992,0.53302 -0.786,0.53302 -0.18679,0 -0.27863,-0.0388 -0.2041,-0.0862 z m -101.1766,-1.15013 c 0,-0.17741 0.146358,-0.23785 0.32524,-0.13432 0.178881,0.10354 0.325239,0.24869 0.325239,0.32257 0,0.0739 -0.146358,0.13431 -0.325239,0.13431 -0.178882,0 -0.32524,-0.14515 -0.32524,-0.32256 z m 102.93831,0.018 c 0.11056,-0.16753 0.26555,-0.30459 0.34444,-0.30459 0.0789,0 0.14342,0.13706 0.14342,0.30459 0,0.16752 -0.15499,0.30458 -0.34443,0.30458 -0.18944,0 -0.25398,-0.13706 -0.14343,-0.30458 z M 50.218381,174.67516 c -1.485619,-0.9822 -0.974486,-0.96884 0.571436,0.0149 0.658119,0.41881 1.05284,0.75475 0.877152,0.74653 -0.175685,-0.008 -0.82755,-0.35087 -1.448588,-0.76146 z M 157.21301,174.5378 c 0.80497,-0.50113 1.602,-0.91173 1.77118,-0.91245 0.16919,-6.1e-4 -0.38474,0.40989 -1.23094,0.91245 -1.99881,1.18711 -2.44709,1.18711 -0.54024,0 z m 2.27668,-1.57369 c 0,-0.19544 0.0979,-0.26367 0.21753,-0.15163 0.11965,0.11205 0.48554,-0.0234 0.8131,-0.30103 0.32756,-0.27761 0.59556,-0.39582 0.59556,-0.26268 0,0.27257 -1.0078,1.04613 -1.38226,1.061 -0.13417,0.005 -0.24393,-0.15022 -0.24393,-0.34566 z M 44.029652,170.8648 c 0,-0.17741 0.146357,-0.23785 0.325239,-0.13432 0.178882,0.10354 0.32524,0.24869 0.32524,0.32256 0,0.0739 -0.146358,0.13432 -0.32524,0.13432 -0.178882,0 -0.325239,-0.14515 -0.325239,-0.32256 z m 119.200288,0.018 c 0.11056,-0.16752 0.26555,-0.30458 0.34444,-0.30458 0.0789,0 0.14342,0.13706 0.14342,0.30458 0,0.16753 -0.155,0.30459 -0.34444,0.30459 -0.18943,0 -0.25397,-0.13706 -0.14342,-0.30459 z M 41.768934,169.64075 c -0.796189,-0.48954 -1.305827,-0.89008 -1.132526,-0.89008 0.355295,0 2.742765,1.46777 2.742765,1.6862 0,0.1953 0.01135,0.20092 -1.610239,-0.79612 z m 122.301206,0.8388 c 0.0745,-0.0542 0.64777,-0.40824 1.27386,-0.78664 l 1.13834,-0.688 -0.97572,0.78513 c -0.53665,0.43182 -1.10988,0.7858 -1.27386,0.78663 -0.16397,9.2e-4 -0.23715,-0.0429 -0.16262,-0.0971 z M 39.007586,167.97952 c -0.347232,-0.24595 -0.49359,-0.44283 -0.32524,-0.43751 0.168351,0.005 0.590193,0.21093 0.937425,0.45688 0.347232,0.24596 0.49359,0.44284 0.32524,0.43751 -0.168351,-0.005 -0.590193,-0.21092 -0.937425,-0.45688 z m 129.120094,0.0194 c 0.34723,-0.24595 0.76907,-0.45154 0.93743,-0.45688 0.16835,-0.005 0.022,0.19156 -0.32524,0.43751 -0.34724,0.24596 -0.76908,0.45155 -0.93743,0.45688 -0.16835,0.005 -0.022,-0.19155 0.32524,-0.43751 z m -131.253298,-1.3983 c 0,-0.1774 0.146358,-0.23785 0.325239,-0.13431 0.178882,0.10353 0.32524,0.24869 0.32524,0.32256 0,0.0739 -0.146358,0.13432 -0.32524,0.13432 -0.178881,0 -0.325239,-0.14516 -0.325239,-0.32257 z m -2.318164,-1.4288 c -0.404556,-0.48309 -0.393052,-0.49387 0.122797,-0.115 0.313043,0.22992 0.569169,0.46978 0.569169,0.53302 0,0.25069 -0.267083,0.0893 -0.691966,-0.41802 z m 137.943052,0.41802 c 0,-0.0632 0.25612,-0.3031 0.56917,-0.53302 0.51585,-0.37887 0.52735,-0.36809 0.12279,0.115 -0.42488,0.50736 -0.69196,0.66871 -0.69196,0.41802 z M 33.296747,164.46849 c 0,-0.17741 0.146358,-0.23785 0.32524,-0.13431 0.178881,0.10353 0.325239,0.24869 0.325239,0.32256 0,0.0739 -0.146358,0.13432 -0.325239,0.13432 -0.178882,0 -0.32524,-0.14516 -0.32524,-0.32257 z m 140.666103,0.018 c 0.11055,-0.16752 0.26555,-0.30459 0.34443,-0.30459 0.0789,0 0.14342,0.13707 0.14342,0.30459 0,0.16752 -0.15499,0.30459 -0.34443,0.30459 -0.18944,0 -0.25398,-0.13707 -0.14342,-0.30459 z M 31.34531,162.94556 c 0,-0.1774 0.146358,-0.23785 0.325239,-0.13431 0.178882,0.10353 0.32524,0.24869 0.32524,0.32256 0,0.0739 -0.146358,0.13432 -0.32524,0.13432 -0.178881,0 -0.325239,-0.14516 -0.325239,-0.32257 z m 144.56897,0.018 c 0.11056,-0.16752 0.26555,-0.30458 0.34444,-0.30458 0.0789,0 0.14342,0.13706 0.14342,0.30458 0,0.16752 -0.15499,0.30459 -0.34443,0.30459 -0.18944,0 -0.25398,-0.13707 -0.14343,-0.30459 z M 30.053371,161.05988 c -0.886519,-1.50752 -0.713501,-1.44598 0.450414,0.16023 0.452057,0.62384 0.706924,1.13426 0.566372,1.13426 -0.140549,0 -0.598106,-0.58252 -1.016786,-1.29449 z m 146.511389,0.9899 c 0.11056,-0.16752 0.26555,-0.30458 0.34444,-0.30458 0.0789,0 0.14342,0.13706 0.14342,0.30458 0,0.16753 -0.155,0.30459 -0.34443,0.30459 -0.18944,0 -0.25398,-0.13706 -0.14343,-0.30459 z m 0.8131,-0.80477 c 0,-0.16343 0.22761,-0.5632 0.5058,-0.88838 0.47692,-0.55749 0.4837,-0.54777 0.11857,0.17022 -0.47414,0.93235 -0.62437,1.10515 -0.62437,0.71816 z M 31.34531,158.27975 c 0,-0.0632 0.256126,-0.3031 0.569169,-0.53302 0.515849,-0.37887 0.527353,-0.36809 0.122797,0.115 -0.424883,0.50736 -0.691966,0.66871 -0.691966,0.41802 z m 144.36487,-0.41802 c -0.40456,-0.48309 -0.39306,-0.49387 0.12279,-0.115 0.54177,0.3979 0.71406,0.64802 0.44637,0.64802 -0.0675,0 -0.32366,-0.23986 -0.56916,-0.53302 z M 33.947226,156.14765 c 0,-0.0632 0.256126,-0.30311 0.569169,-0.53302 0.51585,-0.37887 0.527353,-0.36809 0.122798,0.115 -0.424883,0.50736 -0.691967,0.66871 -0.691967,0.41802 z m 139.161034,-0.41802 c -0.40456,-0.48309 -0.39305,-0.49387 0.1228,-0.115 0.31304,0.22991 0.56917,0.46978 0.56917,0.53302 0,0.25069 -0.26709,0.0893 -0.69197,-0.41802 z M 36.549142,154.01555 c 0,-0.0632 0.256127,-0.30311 0.56917,-0.53302 0.515849,-0.37887 0.527353,-0.3681 0.122797,0.115 -0.424883,0.50736 -0.691967,0.66871 -0.691967,0.41802 z m 133.957198,-0.41802 c -0.40455,-0.4831 -0.39305,-0.49387 0.1228,-0.115 0.31304,0.22991 0.56917,0.46977 0.56917,0.53302 0,0.25069 -0.26708,0.0893 -0.69197,-0.41802 z M 39.151059,151.88345 c 0,-0.0633 0.256126,-0.30311 0.569169,-0.53302 0.515849,-0.37887 0.527353,-0.3681 0.122797,0.115 -0.424883,0.50736 -0.691966,0.66871 -0.691966,0.41802 z m 128.753371,-0.41802 c -0.40456,-0.4831 -0.39306,-0.49387 0.12279,-0.115 0.31305,0.22991 0.56917,0.46977 0.56917,0.53302 0,0.25069 -0.26708,0.0893 -0.69196,-0.41802 z M 41.752975,149.75135 c 0,-0.0633 0.256126,-0.30311 0.569169,-0.53302 0.51585,-0.37887 0.527353,-0.3681 0.122798,0.11499 -0.424884,0.50737 -0.691967,0.66872 -0.691967,0.41803 z m 123.549535,-0.41803 c -0.40456,-0.48309 -0.39305,-0.49386 0.1228,-0.11499 0.54177,0.3979 0.71405,0.64802 0.44637,0.64802 -0.0675,0 -0.32366,-0.23986 -0.56917,-0.53303 z M 49.883963,143.05046 c 0,-0.0632 0.256126,-0.30311 0.569169,-0.53302 0.51585,-0.37887 0.527354,-0.3681 0.122798,0.115 -0.424883,0.50736 -0.691967,0.66871 -0.691967,0.41802 z m 107.287557,-0.41802 c -0.40455,-0.4831 -0.39305,-0.49387 0.1228,-0.115 0.54177,0.3979 0.71406,0.64802 0.44637,0.64802 -0.0675,0 -0.32366,-0.23986 -0.56917,-0.53302 z M 52.648499,140.72877 c 0.323773,-0.33504 0.661856,-0.60917 0.751297,-0.60917 0.08944,0 -0.102284,0.27413 -0.426057,0.60917 -0.323773,0.33505 -0.661856,0.60918 -0.751297,0.60918 -0.08944,0 0.102285,-0.27413 0.426057,-0.60918 z m 102.094311,-0.0761 -0.61958,-0.68532 0.73179,0.58023 c 0.6877,0.54528 0.87985,0.79041 0.61958,0.79041 -0.0617,0 -0.39102,-0.3084 -0.73179,-0.68532 z M 55.087796,138.7863 c 0,-0.0633 0.256126,-0.30311 0.569169,-0.53303 0.515849,-0.37886 0.527353,-0.36809 0.122797,0.115 -0.424883,0.50737 -0.691966,0.66872 -0.691966,0.41803 z m 96.879894,-0.41803 c -0.40456,-0.48309 -0.39305,-0.49386 0.1228,-0.115 0.54176,0.39791 0.71405,0.64803 0.44637,0.64803 -0.0675,0 -0.32366,-0.23986 -0.56917,-0.53303 z m -63.944919,-1.20846 c 0.494383,-0.07 1.226172,-0.0681 1.626197,0.004 0.400025,0.0723 -0.0045,0.12957 -0.898881,0.12729 -0.894408,-0.002 -1.2217,-0.0614 -0.727316,-0.13145 z m 30.405419,0.004 c 0.40249,-0.0726 1.0611,-0.0726 1.46358,0 0.40249,0.0726 0.0732,0.132 -0.73179,0.132 -0.80496,0 -1.13427,-0.0594 -0.73179,-0.132 z m -60.738478,-0.5092 c 0,-0.0632 0.256126,-0.30311 0.569169,-0.53303 0.51585,-0.37886 0.527353,-0.36809 0.122798,0.115 -0.424883,0.50737 -0.691967,0.66872 -0.691967,0.41803 z m 91.676058,-0.41803 c -0.40455,-0.48309 -0.39305,-0.49386 0.1228,-0.115 0.54177,0.39791 0.71406,0.64803 0.44637,0.64803 -0.0675,0 -0.32366,-0.23986 -0.56917,-0.53303 z M 84.643106,135.932 c -0.404556,-0.48309 -0.393052,-0.49387 0.122797,-0.115 0.313043,0.22991 0.569169,0.46978 0.569169,0.53302 0,0.25069 -0.267083,0.0893 -0.691966,-0.41802 z m 8.009856,-0.0761 c 0.323773,-0.33504 0.661856,-0.60917 0.751297,-0.60917 0.08944,0 -0.102285,0.27413 -0.426058,0.60917 -0.323772,0.33505 -0.661856,0.60917 -0.751296,0.60917 -0.08944,0 0.102284,-0.27412 0.426057,-0.60917 z m 22.085388,-0.0762 -0.61958,-0.68531 0.73179,0.58023 c 0.40248,0.31913 0.73179,0.62752 0.73179,0.68532 0,0.24374 -0.26175,0.0638 -0.844,-0.58024 z m 8.16189,0.0762 c 0.32377,-0.33504 0.66185,-0.60917 0.7513,-0.60917 0.0894,0 -0.10229,0.27413 -0.42606,0.60917 -0.32377,0.33505 -0.66186,0.60917 -0.7513,0.60917 -0.0894,0 0.10229,-0.27412 0.42606,-0.60917 z m -62.608612,-1.33334 c 0,-0.0633 0.256126,-0.30311 0.56917,-0.53303 0.515849,-0.37886 0.527353,-0.36809 0.122797,0.115 -0.424883,0.50737 -0.691967,0.66871 -0.691967,0.41803 z m 86.472232,-0.41803 c -0.40456,-0.48309 -0.39306,-0.49386 0.12279,-0.115 0.54177,0.3979 0.71406,0.64803 0.44638,0.64803 -0.0675,0 -0.32367,-0.23986 -0.56917,-0.53303 z m -63.298206,-0.83761 c 0.0036,-0.67009 0.07022,-0.90835 0.14801,-0.52947 0.07779,0.37887 0.07484,0.92713 -0.0066,1.21834 -0.0814,0.29121 -0.145057,-0.0188 -0.141446,-0.68887 z m 40.654946,0 c 0.004,-0.67009 0.0702,-0.90835 0.14801,-0.52947 0.0778,0.37887 0.0748,0.92713 -0.007,1.21834 -0.0814,0.29121 -0.14506,-0.0188 -0.14145,-0.68887 z m -30.47101,-1.28135 c -0.176501,-0.4341 -0.139144,-0.46908 0.182069,-0.17051 0.222275,0.20661 0.322205,0.45238 0.222067,0.54616 -0.100138,0.0938 -0.281999,-0.0753 -0.404136,-0.37565 z m 19.98132,0.23328 c 0,-0.15764 0.14468,-0.37035 0.32152,-0.4727 0.18436,-0.10671 0.23889,0.0156 0.12782,0.28661 -0.21622,0.52767 -0.44934,0.62421 -0.44934,0.18609 z m -20.856816,-1.46476 c -0.404556,-0.48309 -0.393052,-0.49387 0.122798,-0.115 0.313043,0.22991 0.569169,0.46978 0.569169,0.53302 0,0.25069 -0.267084,0.0893 -0.691967,-0.41802 z m 21.507296,0.41802 c 0,-0.0632 0.25613,-0.30311 0.56917,-0.53302 0.51585,-0.37887 0.52735,-0.36809 0.1228,0.115 -0.42489,0.50736 -0.69197,0.66871 -0.69197,0.41802 z m -26.100472,-1.92747 c 0.402484,-0.0726 1.061094,-0.0726 1.463578,0 0.402484,0.0726 0.07318,0.132 -0.731789,0.132 -0.804968,0 -1.134273,-0.0594 -0.731789,-0.132 z m 29.922042,0 c 0.40248,-0.0726 1.06109,-0.0726 1.46357,0 0.40249,0.0726 0.0732,0.132 -0.73179,0.132 -0.80496,0 -1.13427,-0.0594 -0.73178,-0.132 z m -27.625037,-3.95272 c 0.23478,-0.088 0.515303,-0.0772 0.623376,0.024 0.108074,0.10121 -0.08402,0.1732 -0.426877,0.15997 -0.378887,-0.0146 -0.455953,-0.0868 -0.196499,-0.18402 z m 26.344397,0 c 0.23479,-0.088 0.51531,-0.0772 0.62338,0.024 0.10808,0.10121 -0.084,0.1732 -0.42688,0.15997 -0.37888,-0.0146 -0.45595,-0.0868 -0.1965,-0.18402 z m -28.621074,-0.30459 c 0.23478,-0.088 0.515303,-0.0772 0.623377,0.024 0.108073,0.10121 -0.08402,0.1732 -0.426877,0.15998 -0.378888,-0.0146 -0.455954,-0.0868 -0.1965,-0.18402 z m 30.897754,0 c 0.23478,-0.088 0.5153,-0.0772 0.62338,0.024 0.10807,0.10121 -0.084,0.1732 -0.42688,0.15998 -0.37889,-0.0146 -0.45595,-0.0868 -0.1965,-0.18402 z m -39.353982,-1.21834 c 0.234781,-0.088 0.515303,-0.0772 0.623377,0.024 0.108074,0.10121 -0.08402,0.1732 -0.426877,0.15997 -0.378888,-0.0146 -0.455953,-0.0868 -0.1965,-0.18402 z m 47.810212,0 c 0.23478,-0.088 0.5153,-0.0772 0.62338,0.024 0.10807,0.10121 -0.084,0.1732 -0.42688,0.15997 -0.37889,-0.0146 -0.45595,-0.0868 -0.1965,-0.18402 z M 41.427735,97.629876 c 0.420129,-0.418805 0.837047,-0.761464 0.926487,-0.761464 0.08944,0 -0.181119,0.342659 -0.601247,0.761464 -0.420128,0.418806 -0.837046,0.761465 -0.926487,0.761465 -0.08944,0 0.181119,-0.342659 0.601247,-0.761465 z m 124.542125,-0.07615 -0.78848,-0.837611 0.89441,0.73841 c 0.83596,0.690158 1.04356,0.936812 0.78848,0.936812 -0.0583,0 -0.46074,-0.376925 -0.89441,-0.837611 z M 43.988164,88.72074 c -0.404556,-0.483091 -0.393052,-0.493864 0.122798,-0.114999 0.313043,0.229917 0.569169,0.469778 0.569169,0.533025 0,0.250687 -0.267084,0.08934 -0.691967,-0.418026 z m 119.079156,0.418026 c 0,-0.06325 0.25613,-0.303108 0.56917,-0.533025 0.51585,-0.378865 0.52735,-0.368092 0.1228,0.114999 -0.42489,0.507364 -0.69197,0.668713 -0.69197,0.418026 z M 32.346706,86.639405 c 0.01561,-0.354828 0.09267,-0.426999 0.196497,-0.184022 0.09395,0.219871 0.0824,0.482577 -0.02566,0.583791 -0.108077,0.10121 -0.184944,-0.07869 -0.170822,-0.399769 z m 142.780154,0 c 0.0156,-0.354828 0.0927,-0.426999 0.1965,-0.184022 0.0939,0.219871 0.0824,0.482577 -0.0257,0.583791 -0.10808,0.10121 -0.18495,-0.07869 -0.17083,-0.399769 z"
         id="path2241" />
      <path
         style="fill:#767676;fill-opacity:1;stroke-width:0.314743"
         d="m 102.8167,199.90268 c 0.58136,-0.0676 1.53269,-0.0676 2.11405,0 0.58137,0.0676 0.10571,0.12285 -1.05702,0.12285 -1.16274,0 -1.6384,-0.0553 -1.05703,-0.12285 z m -1.95144,-15.51526 c 0.2236,-0.0845 0.5895,-0.0845 0.8131,0 0.2236,0.0845 0.0406,0.15363 -0.40655,0.15363 -0.4472,0 -0.63015,-0.0691 -0.40655,-0.15363 z m 5.20383,0 c 0.2236,-0.0845 0.5895,-0.0845 0.8131,0 0.2236,0.0845 0.0407,0.15363 -0.40655,0.15363 -0.4472,0 -0.63015,-0.0691 -0.40655,-0.15363 z m -43.484526,-2.39774 c -0.01812,-0.35102 -1.99152,-1.5396 -2.374246,-1.43001 -0.134161,0.0384 -0.243929,-0.0672 -0.243929,-0.23474 0,-0.16752 -0.219537,-0.30458 -0.48786,-0.30458 -0.268322,0 -0.487859,-0.12145 -0.487859,-0.26988 0,-0.14844 -0.548842,-0.51086 -1.219648,-0.80538 -0.670807,-0.29452 -1.338413,-0.72422 -1.483567,-0.95487 -0.145155,-0.23065 -0.401281,-0.33987 -0.569169,-0.2427 -0.167889,0.0972 -0.305251,0.0315 -0.305251,-0.14588 0,-0.17741 -0.196854,-0.32256 -0.43745,-0.32256 -0.240599,0 -0.699233,-0.2709 -1.019187,-0.60199 -0.319954,-0.3311 -0.693196,-0.53748 -0.829426,-0.45863 -0.13623,0.0789 -0.339654,-0.0811 -0.452047,-0.35536 -0.112396,-0.2743 -0.289671,-0.41883 -0.393943,-0.32118 -0.104272,0.0976 -0.497555,-0.0911 -0.873961,-0.41956 -0.376409,-0.32841 -1.238977,-0.82625 -1.916815,-1.10633 -0.677842,-0.28007 -1.23244,-0.6199 -1.23244,-0.75519 0,-0.13528 -0.219537,-0.24597 -0.48786,-0.24597 -0.268322,0 -0.487859,-0.13706 -0.487859,-0.30458 0,-0.16752 -0.213835,-0.30459 -0.475188,-0.30459 -0.261356,0 -0.773608,-0.29997 -1.138338,-0.6666 -0.364734,-0.36663 -0.665392,-0.53796 -0.66813,-0.38073 -0.0026,0.15723 -0.143759,0.0803 -0.313378,-0.17101 -0.169619,-0.25128 -0.423501,-0.46028 -0.56419,-0.46444 -0.140686,-0.004 -0.899772,-0.44961 -1.686858,-0.9899 -0.787086,-0.54029 -1.628644,-0.98235 -1.870127,-0.98235 -0.241484,0 -0.439061,-0.12145 -0.439061,-0.26988 0,-0.14843 -0.548841,-0.51085 -1.219648,-0.80538 -0.670807,-0.29452 -1.338413,-0.72421 -1.483567,-0.95487 -0.145155,-0.23065 -0.401281,-0.33986 -0.569169,-0.24269 -0.167889,0.0972 -0.305251,0.0315 -0.305251,-0.14589 0,-0.17741 -0.196854,-0.32256 -0.43745,-0.32256 -0.240599,0 -0.699232,-0.2709 -1.019187,-0.60199 -0.319954,-0.33109 -0.693196,-0.53748 -0.829426,-0.45863 -0.13623,0.0788 -0.332134,-0.0627 -0.435343,-0.31459 -0.103208,-0.25188 -0.30149,-0.42756 -0.440628,-0.39042 -0.444898,0.11877 -1.741586,-0.69131 -1.556209,-0.9722 0.09822,-0.14882 -0.08063,-0.41191 -0.397439,-0.58463 -0.316807,-0.17273 -0.470651,-0.31822 -0.341883,-0.32331 0.128773,-0.005 -0.127354,-0.50811 -0.569169,-1.11782 -0.441812,-0.6097 -0.803296,-1.20129 -0.803296,-1.31465 0,-0.11336 5.58367,-4.78866 12.408152,-10.38956 6.824485,-5.60091 15.117598,-12.40699 18.429142,-15.12464 l 6.02099,-4.94117 6.248652,-2.86609 6.248651,-2.86609 2.886257,0.41301 c 1.587442,0.22715 5.008445,0.6996 7.60223,1.04988 4.520976,0.61054 4.749594,0.67568 5.529072,1.57538 1.775398,2.04922 3.902875,5.23309 3.902875,5.84084 0,0.35341 -0.51343,2.08555 -1.140953,3.8492 l -1.140951,3.20664 -15.80428,19.0287 c -10.668103,12.84463 -16.211135,19.77109 -17.056201,21.31309 -0.688559,1.25642 -1.259243,2.14261 -1.268184,1.96933 z m 27.629101,-44.88292 c 0,-0.25382 1.732997,-0.81163 1.835981,-0.59096 0.02595,0.0556 0.351795,-0.15711 0.72412,-0.47267 0.372324,-0.31555 0.597953,-0.69344 0.501392,-0.83976 -0.09656,-0.14632 0.01665,-0.33523 0.251599,-0.41982 0.6049,-0.21777 0.545606,-2.83951 -0.0725,-3.20563 -0.261831,-0.15509 -0.348368,-0.28408 -0.192305,-0.28664 0.156067,-0.002 0.102893,-0.20875 -0.118159,-0.45819 -0.221056,-0.24944 -0.509527,-0.39124 -0.641047,-0.31512 -0.131524,0.0761 -0.555909,-0.13798 -0.943078,-0.47577 -0.387171,-0.3378 -0.84841,-0.53057 -1.024976,-0.42837 -0.176566,0.10219 -0.321028,0.0406 -0.321028,-0.13676 0,-0.41277 -2.496252,-0.4245 -2.767814,-0.013 -0.112357,0.17025 -0.315486,0.24519 -0.451397,0.16653 -0.135908,-0.0787 -0.765194,0.25691 -1.398409,0.74572 -0.633219,0.4888 -1.26716,0.79079 -1.408762,0.67107 -0.1416,-0.11971 -0.152177,-0.0463 -0.02348,0.16308 0.128678,0.2094 0.07033,0.38073 -0.129669,0.38073 -0.199997,0 -0.273176,0.13707 -0.16262,0.30459 0.110555,0.16752 0.04601,0.30458 -0.143424,0.30458 -0.189439,0 -0.344436,0.47973 -0.344436,1.06605 0,0.58633 0.154997,1.06605 0.344436,1.06605 0.189439,0 0.253979,0.13707 0.143424,0.30459 -0.110556,0.16752 -0.04601,0.30459 0.143424,0.30459 0.189439,0 0.344435,0.18881 0.344435,0.41958 0,0.23077 0.247631,0.6077 0.550292,0.83761 0.357458,0.27154 0.466082,0.2867 0.309983,0.0433 -0.144058,-0.22466 0.189175,-0.16366 0.831976,0.1523 0.589756,0.28988 1.121071,0.62985 1.180697,0.75549 0.154372,0.32528 2.981364,0.28439 2.981364,-0.0431 z m 53.598685,42.81409 c -0.80115,-1.50963 -6.01749,-8.02131 -16.87797,-21.06922 l -15.71846,-18.88432 -1.2318,-3.30794 c -0.67749,-1.81936 -1.2318,-3.61648 -1.2318,-3.99358 0,-0.64346 2.08184,-3.78202 3.90287,-5.88391 0.77948,-0.8997 1.0081,-0.96484 5.52908,-1.57538 2.59378,-0.35028 6.01478,-0.82273 7.60223,-1.04988 l 2.88625,-0.41301 6.25617,2.86954 c 5.58234,2.56047 6.5851,3.13972 9.31022,5.37814 1.67974,1.37973 9.64016,7.90432 17.68984,14.49907 8.04968,6.59476 14.97334,12.29034 15.38592,12.65685 0.67915,0.60333 0.71058,0.75057 0.33209,1.55604 -0.22993,0.48931 -0.60716,1.00088 -0.83829,1.13681 -0.23113,0.13594 -0.34482,0.36144 -0.25265,0.50111 0.0922,0.13968 -0.0604,0.33588 -0.33901,0.43601 -0.27863,0.10013 -0.40943,0.32932 -0.29065,0.5093 0.11988,0.18165 -0.088,0.40167 -0.46724,0.49455 -0.37576,0.092 -0.68321,0.29649 -0.68321,0.45436 0,0.15787 -0.14739,0.20172 -0.32753,0.0975 -0.18015,-0.10427 -0.41502,0.0239 -0.52194,0.28486 -0.10692,0.26094 -0.30587,0.40992 -0.4421,0.33107 -0.13623,-0.0788 -0.50947,0.12754 -0.82942,0.45863 -0.31996,0.33109 -0.77859,0.60199 -1.01919,0.60199 -0.2406,0 -0.43745,0.13706 -0.43745,0.30459 0,0.16752 -0.21954,0.30458 -0.48786,0.30458 -0.26832,0 -0.48786,0.11069 -0.48786,0.24597 0,0.13528 -0.58543,0.48786 -1.30096,0.7835 -0.71552,0.29564 -1.30096,0.66468 -1.30096,0.82008 0,0.15541 -0.21953,0.28255 -0.48785,0.28255 -0.26833,0 -0.48786,0.13707 -0.48786,0.30459 0,0.16752 -0.10977,0.27315 -0.24393,0.23474 -0.35157,-0.10067 -2.35799,1.06663 -2.35799,1.37183 0,0.14129 -0.14739,0.17159 -0.32754,0.0673 -0.18014,-0.10426 -0.41501,0.0239 -0.52194,0.28486 -0.10692,0.26094 -0.31643,0.40381 -0.46557,0.31749 -0.14914,-0.0863 -0.40089,0.0601 -0.55945,0.32545 -0.15855,0.26533 -0.51867,0.51408 -0.80027,0.55279 -0.2816,0.0387 -0.72318,0.2345 -0.98129,0.43511 -0.25811,0.20061 -0.56559,0.27455 -0.68329,0.16433 -0.1177,-0.11023 -0.21778,-0.006 -0.2224,0.23108 -0.005,0.23732 -0.55995,0.66918 -1.23409,0.95969 -0.67413,0.2905 -1.53293,0.79624 -1.90842,1.12385 -0.3755,0.32762 -0.76804,0.51577 -0.87231,0.41812 -0.10427,-0.0977 -0.28155,0.0469 -0.39394,0.32118 -0.1124,0.27429 -0.31322,0.43572 -0.44626,0.35871 -0.13305,-0.077 -0.55067,0.12938 -0.92804,0.45863 -0.37738,0.32925 -0.83861,0.59864 -1.02498,0.59864 -0.18635,0 -0.33883,0.14515 -0.33883,0.32256 0,0.17741 -0.1474,0.23725 -0.32754,0.13298 -0.18015,-0.10426 -0.41534,0.0247 -0.52266,0.28662 -0.10731,0.2619 -0.37704,0.47618 -0.59938,0.47618 -0.22235,0 -1.01039,0.41119 -1.7512,0.91376 -0.74082,0.50256 -1.46122,0.91375 -1.6009,0.91375 -0.13967,0 -0.77301,0.40069 -1.40741,0.89041 l -1.15346,0.8904 z m -23.2972,-42.77096 c 0.0596,-0.12564 0.59094,-0.46562 1.1807,-0.7555 0.64741,-0.31822 0.97965,-0.37856 0.8385,-0.15229 -0.12858,0.20612 0.0806,0.11659 0.46493,-0.19897 0.3843,-0.31555 0.62035,-0.69247 0.52457,-0.83761 -0.0958,-0.14513 -0.0105,-0.26388 0.18949,-0.26388 0.19999,0 0.27317,-0.13706 0.16262,-0.30458 -0.11056,-0.16752 -0.046,-0.30459 0.14342,-0.30459 0.18944,0 0.34444,-0.47972 0.34444,-1.06605 0,-0.60917 -0.16262,-1.06605 -0.37945,-1.06605 -0.20869,0 -0.28802,-0.0856 -0.17628,-0.19027 0.26017,-0.24365 -2.72709,-2.56934 -3.05583,-2.37908 -0.13551,0.0784 -0.3383,0.003 -0.45066,-0.16695 -0.27156,-0.4115 -2.76781,-0.39977 -2.76781,0.013 0,0.17741 -0.14447,0.23895 -0.32103,0.13675 -0.17657,-0.10219 -0.63781,0.0906 -1.02498,0.42837 -0.38717,0.3378 -0.81155,0.5519 -0.94308,0.47578 -0.13152,-0.0761 -0.41999,0.0657 -0.64104,0.31511 -0.22105,0.24944 -0.27423,0.45563 -0.11816,0.45819 0.15606,0.002 0.0695,0.13156 -0.19231,0.28665 -0.6181,0.36612 -0.6774,2.98786 -0.0725,3.20563 0.23494,0.0846 0.34633,0.27629 0.24752,0.42601 -0.20185,0.30585 0.63035,1.0452 1.27639,1.134 0.23203,0.0319 0.83929,0.26322 1.34946,0.51407 0.98369,0.48366 3.23882,0.67632 3.42109,0.29226 z m 47.41326,-37.768645 -1.12083,-1.142197 1.21964,1.049655 c 1.13523,0.976997 1.36919,1.234737 1.12083,1.234737 -0.0543,0 -0.60319,-0.51399 -1.21964,-1.142195 z M 38.825819,100.12355 c 0,-0.0524 0.475663,-0.497878 1.057029,-0.989906 l 1.057028,-0.894596 -0.955258,0.989904 c -0.890434,0.922728 -1.158799,1.129908 -1.158799,0.894598 z m 6.138064,-10.489052 c -0.404556,-0.483092 -0.393052,-0.493865 0.122797,-0.115 0.313043,0.229917 0.569169,0.469778 0.569169,0.533026 0,0.250686 -0.267083,0.08934 -0.691966,-0.418026 z M 162.0916,90.052524 c 0,-0.06325 0.25613,-0.303109 0.56917,-0.533026 0.51585,-0.378865 0.52735,-0.368092 0.1228,0.115 -0.42488,0.507364 -0.69197,0.668712 -0.69197,0.418026 z m -120.532146,-3.311592 -0.619578,-0.685318 0.731789,0.580233 c 0.402484,0.319127 0.731789,0.62752 0.731789,0.685318 0,0.243745 -0.26175,0.0638 -0.844,-0.580233 z m 124.272406,0.07615 c 0.32377,-0.335045 0.66185,-0.609172 0.75129,-0.609172 0.0894,0 -0.10228,0.274127 -0.42605,0.609172 -0.32378,0.335044 -0.66186,0.609171 -0.7513,0.609171 -0.0894,0 0.10228,-0.274127 0.42606,-0.609171 z M 32.69762,84.380392 c 0,-0.418806 0.07382,-0.590135 0.164048,-0.380732 0.09022,0.209402 0.09022,0.552062 0,0.761464 -0.09023,0.209403 -0.164048,0.03807 -0.164048,-0.380732 z m 142.12968,0 c 0,-0.418806 0.0738,-0.590135 0.16404,-0.380732 0.0902,0.209402 0.0902,0.552062 0,0.761464 -0.0902,0.209403 -0.16404,0.03807 -0.16404,-0.380732 z"
         id="path2239" />
      <path
         style="fill:#606060;fill-opacity:1;stroke-width:0.314743"
         d="m 102.8167,184.3688 c 0.58136,-0.0676 1.53269,-0.0676 2.11405,0 0.58137,0.0676 0.10571,0.12285 -1.05702,0.12285 -1.16274,0 -1.6384,-0.0553 -1.05703,-0.12285 z M 92.165103,136.04499 c 0,-0.0633 0.256126,-0.30311 0.569169,-0.53303 0.515849,-0.37886 0.527353,-0.36809 0.122797,0.115 -0.424883,0.50737 -0.691966,0.66871 -0.691966,0.41803 z m 22.725277,-0.41803 c -0.40455,-0.48309 -0.39305,-0.49386 0.1228,-0.115 0.31304,0.22992 0.56917,0.46978 0.56917,0.53303 0,0.25068 -0.26708,0.0893 -0.69197,-0.41803 z M 36.865083,100.96009 c -0.20011,-0.49144 -1.290433,-3.442536 -2.422937,-6.557989 l -2.059101,-5.664462 0.358378,-3.396967 c 0.197108,-1.868333 0.45677,-3.396967 0.577027,-3.396967 0.120254,0 1.884272,0.954414 3.920038,2.120923 3.094332,1.773073 8.65448,5.930183 9.002675,6.730954 0.207256,0.476637 -4.2564,6.343692 -6.574512,8.641579 l -2.437729,2.416459 z M 167.75366,99.050928 c -2.45848,-2.465805 -6.46335,-7.759913 -6.24661,-8.257496 0.34823,-0.799434 5.91191,-4.958207 9.00191,-6.728804 2.03577,-1.166509 3.79979,-2.120923 3.92004,-2.120923 0.12026,0 0.38019,1.531217 0.57763,3.402708 l 0.35899,3.402709 -2.27765,6.267892 c -1.2527,3.447339 -2.37329,6.359116 -2.4902,6.470596 -0.11691,0.1115 -1.39676,-0.98501 -2.84411,-2.436682 z"
         id="path2237" />
      <path
         style="fill:#494949;fill-opacity:1;stroke-width:0.314743"
         d="m 99.889542,199.61671 c 0.223598,-0.0845 0.589498,-0.0845 0.813098,0 0.2236,0.0845 0.0407,0.15363 -0.40655,0.15363 -0.447203,0 -0.630151,-0.0691 -0.406548,-0.15363 z m 7.155268,0 c 0.2236,-0.0845 0.5895,-0.0845 0.8131,0 0.2236,0.0845 0.0407,0.15363 -0.40655,0.15363 -0.4472,0 -0.63015,-0.0691 -0.40655,-0.15363 z M 95.580118,198.2955 c 0.110555,-0.16752 0.347365,-0.30459 0.526247,-0.30459 0.178882,0 0.234787,0.13707 0.124232,0.30459 -0.110556,0.16752 -0.347366,0.30459 -0.526248,0.30459 -0.178881,0 -0.234787,-0.13707 -0.124231,-0.30459 z m 16.099352,-0.018 c 0,-0.17741 0.14636,-0.23785 0.32524,-0.13432 0.17889,0.10354 0.32524,0.24869 0.32524,0.32257 0,0.0739 -0.14635,0.13431 -0.32524,0.13431 -0.17888,0 -0.32524,-0.14515 -0.32524,-0.32256 z m -20.033128,-2.19028 -0.619578,-0.68532 0.731789,0.58024 c 0.402484,0.31912 0.731789,0.62752 0.731789,0.68532 0,0.24374 -0.261749,0.0638 -0.844,-0.58024 z m 24.098628,0.0761 c 0.32377,-0.33505 0.66185,-0.60917 0.7513,-0.60917 0.0894,0 -0.10229,0.27412 -0.42606,0.60917 -0.32377,0.33504 -0.66186,0.60917 -0.7513,0.60917 -0.0894,0 0.10229,-0.27413 0.42606,-0.60917 z m -24.098628,-7.84833 c 0.734999,-0.80677 0.735588,-0.80695 0.735588,-0.2232 0,0.25129 -0.07191,0.38954 -0.1598,0.30723 -0.08789,-0.0823 -0.392801,0.0181 -0.677581,0.22319 -0.317255,0.22845 -0.277833,0.10946 0.101793,-0.30722 z m 24.067728,-0.14705 -0.61958,-0.68532 0.73179,0.58024 c 0.40248,0.31912 0.73179,0.62752 0.73179,0.68531 0,0.24375 -0.26175,0.0638 -0.844,-0.58023 z m -15.65572,-3.48537 c 0.31645,-0.0772 0.75552,-0.0721 0.97572,0.0113 0.2202,0.0834 -0.0387,0.14662 -0.57536,0.14041 -0.536645,-0.006 -0.716808,-0.0745 -0.40036,-0.1517 z m 6.83003,0 c 0.31645,-0.0772 0.75552,-0.0721 0.97572,0.0113 0.2202,0.0834 -0.0387,0.14662 -0.57536,0.14041 -0.53664,-0.006 -0.71681,-0.0745 -0.40036,-0.1517 z M 87.876006,129.55562 c 0.234781,-0.088 0.515303,-0.0772 0.623377,0.024 0.108074,0.10121 -0.08402,0.1732 -0.426877,0.15997 -0.378888,-0.0146 -0.455953,-0.0868 -0.1965,-0.18401 z m 31.548234,0 c 0.23478,-0.088 0.5153,-0.0772 0.62338,0.024 0.10807,0.10121 -0.084,0.1732 -0.42688,0.15997 -0.37889,-0.0146 -0.45595,-0.0868 -0.1965,-0.18401 z"
         id="path2235" />
      <path
         style="fill:#333333;fill-opacity:1;stroke-width:0.314743"
         d="m 99.482992,199.5292 c -2.212439,-0.34655 -3.503981,-0.85247 -3.231235,-1.26576 0.150436,-0.22796 -0.0034,-0.27051 -0.473217,-0.13088 -0.826323,0.24562 -3.084084,-0.93004 -2.752112,-1.43307 0.119685,-0.18135 0.06305,-0.23774 -0.127829,-0.12726 -0.498995,0.28881 -2.269056,-1.73006 -2.701231,-3.08094 -0.272619,-0.85213 -0.276213,-1.48853 -0.01356,-2.40197 0.421995,-1.46766 1.56221,-2.93543 2.057599,-2.6487 0.192197,0.11124 0.257108,0.0623 0.144247,-0.10868 -0.393202,-0.59582 2.709974,-2.44213 3.416898,-2.03297 0.211282,0.12229 0.276135,0.0757 0.153455,-0.11017 -0.636885,-0.96506 6.634973,-1.87464 10.927803,-1.36688 3.45376,0.40852 5.21617,0.89938 4.90765,1.36688 -0.12234,0.18538 -0.0579,0.23251 0.15186,0.1111 0.51839,-0.30004 3.06468,0.97333 2.78717,1.39383 -0.1286,0.19487 -0.0781,0.25531 0.11837,0.14161 0.53303,-0.30851 2.29096,1.7799 2.70222,3.21021 0.4869,1.69338 -0.005,3.24325 -1.53141,4.82555 -1.38768,1.43846 -3.21349,2.54383 -3.83367,2.32096 -0.24898,-0.0895 -0.52274,0.008 -0.60837,0.21725 -0.0856,0.20897 -0.78758,0.55724 -1.55992,0.77394 -1.71003,0.47981 -8.29878,0.69617 -10.534708,0.34595 z M 86.79865,136.61597 c -1.439965,-0.47709 -2.652588,-1.60745 -2.961676,-2.76075 -0.547375,-2.04242 1.876241,-4.13105 4.822378,-4.15585 2.8394,-0.0239 4.729881,1.22254 5.027859,3.31497 0.207073,1.45409 -0.706817,2.66173 -2.634883,3.48181 -1.579103,0.67165 -2.509077,0.69784 -4.253678,0.11982 z m 4.878593,-4.11101 c 0,-0.99924 -1.302177,-1.26066 -1.619257,-0.32507 -0.284727,0.84013 0.06805,1.29355 0.918158,1.1801 0.504372,-0.0673 0.701099,-0.30724 0.701099,-0.85503 z m 25.017877,4.00787 c -3.46001,-1.51518 -3.62144,-4.76235 -0.31631,-6.36296 2.32418,-1.12556 6.09707,-0.2006 7.17979,1.76019 0.63698,1.15356 0.60392,1.77144 -0.15734,2.94065 -1.23916,1.90323 -4.37864,2.68136 -6.70614,1.66212 z m 1.00308,-3.40143 c 0.35791,-0.54233 -0.18693,-1.5202 -0.84702,-1.5202 -0.70987,0 -1.11329,0.66944 -0.82598,1.37064 0.21124,0.51552 1.36351,0.61853 1.673,0.14956 z"
         id="path2233" />
    </g>
  </g>
</svg>
